<svg version="1.1" id="Layer_1" xmlns="http://www.w3.org/2000/svg" xmlns:xlink="http://www.w3.org/1999/xlink" x="0px" y="0px"
	 width="100%" viewBox="0 0 2048 2048" enable-background="new 0 0 2048 2048" xml:space="preserve">
<path fill="#FFFFFF" opacity="1.000000" stroke="none" 
	d="
M1091.000000,2049.000000 
	C1050.979126,2049.000000 1010.958191,2049.000000 970.771667,2048.618408 
	C969.926514,2047.830566 969.270874,2047.119385 968.563904,2047.064087 
	C959.079834,2046.322632 949.584045,2045.731323 940.100769,2044.980835 
	C932.769958,2044.401001 925.426025,2043.859009 918.135498,2042.927612 
	C906.552551,2041.448120 894.993774,2039.757690 883.454895,2037.963257 
	C876.298279,2036.849976 869.197327,2035.379517 861.763428,2033.771973 
	C861.339783,2031.325684 861.123108,2029.176880 861.122803,2027.028076 
	C861.098450,1872.180420 861.091919,1717.332642 861.074951,1562.484985 
	C861.074768,1560.324951 860.959351,1558.164917 860.984924,1555.542969 
	C861.072144,1474.054077 861.072144,1393.026978 861.072144,1311.645996 
	C775.395325,1311.645996 690.501709,1311.645996 605.089172,1311.645996 
	C605.089172,1309.511108 605.092896,1307.726196 605.088623,1305.941284 
	C605.026001,1279.628784 604.962158,1253.316406 604.983948,1226.541748 
	C605.077026,1180.011719 605.072449,1133.943848 605.098145,1087.875977 
	C605.109619,1067.255859 605.181702,1046.635742 605.400208,1025.917480 
	C605.779053,1025.638550 605.926147,1025.419189 606.478394,1025.091309 
	C691.545837,1025.021362 776.150208,1025.021362 860.897522,1025.021362 
	C860.897522,1020.270142 860.897522,1016.136108 860.980469,1011.539551 
	C861.073303,988.648438 861.112305,966.219788 861.084717,943.791199 
	C861.059448,923.194580 860.962463,902.598083 860.979248,881.538940 
	C861.073242,853.619019 861.007019,826.161377 861.128967,798.704529 
	C861.192139,784.469849 861.588318,770.236694 861.921448,755.585815 
	C862.351624,754.259155 862.900146,753.372620 863.005798,752.436157 
	C864.375305,740.298828 865.342529,728.104736 867.110291,716.027283 
	C868.562439,706.105896 870.663391,696.253418 872.992310,686.493408 
	C875.673157,675.258484 878.920715,664.158691 882.115112,652.684692 
	C890.767822,626.237244 900.885315,600.730469 915.440430,577.409973 
	C926.228455,560.125244 938.690491,543.885315 950.681213,527.012390 
	C967.042603,508.261963 984.555420,491.107941 1004.692932,477.008392 
	C1020.593994,465.875092 1037.315186,455.913025 1053.999146,445.296173 
	C1071.126099,438.258270 1087.657837,430.584503 1104.786011,424.624847 
	C1133.382568,414.674835 1162.794800,407.796234 1193.046997,404.985535 
	C1207.167358,403.673645 1221.269287,401.447418 1235.407104,401.198486 
	C1258.493896,400.791992 1281.607300,401.500305 1304.701538,402.062653 
	C1317.420044,402.372345 1330.124268,403.307281 1342.830566,404.037445 
	C1347.113525,404.283539 1351.387939,404.715942 1355.657227,405.151978 
	C1367.976807,406.410339 1380.298340,407.655457 1392.606812,409.015778 
	C1405.550903,410.446350 1418.489624,411.934387 1431.414673,413.527466 
	C1442.705688,414.919159 1453.980835,416.444733 1465.250488,418.001923 
	C1472.062622,418.943237 1478.850708,420.057678 1485.880249,421.129517 
	C1485.880249,431.107727 1485.863892,440.584167 1485.883301,450.060516 
	C1485.942627,479.041229 1486.015747,508.021973 1486.004150,537.465454 
	C1485.924927,585.846130 1485.924927,633.764099 1485.924927,681.963257 
	C1483.333252,681.963257 1481.516235,681.963196 1479.699219,681.963196 
	C1451.369141,681.963196 1423.036011,681.701477 1394.710083,682.042175 
	C1369.983032,682.339539 1345.258057,683.141541 1320.544189,684.051147 
	C1303.304321,684.685730 1286.694946,688.810669 1270.736816,695.188171 
	C1242.316528,706.546021 1221.541748,725.816589 1210.329346,755.127930 
	C1203.171997,773.517456 1199.347656,792.408630 1199.172852,811.654846 
	C1198.691650,864.608276 1199.020752,917.569153 1199.043823,970.527039 
	C1199.045654,974.685913 1199.160889,978.844849 1199.149658,983.466980 
	C1199.123291,997.293762 1199.170776,1010.657227 1199.181396,1024.264404 
	C1199.144531,1024.507935 1199.490601,1024.858398 1199.490601,1024.858398 
	C1199.490601,1024.858398 1199.980713,1024.809692 1200.444580,1024.889404 
	C1290.478760,1024.969238 1380.048950,1024.969238 1469.923462,1024.969238 
	C1469.923462,1026.215942 1470.038818,1027.026001 1469.905518,1027.792847 
	C1468.640991,1035.065308 1467.209229,1042.310913 1466.065430,1049.601807 
	C1463.597412,1065.332886 1461.304321,1081.091187 1458.877319,1096.828857 
	C1456.348633,1113.225952 1453.747070,1129.612061 1451.066162,1146.399292 
	C1449.767334,1153.938965 1448.556885,1161.078491 1447.397461,1168.226318 
	C1444.598145,1185.482178 1441.830811,1202.743408 1439.033936,1219.999756 
	C1437.277710,1230.835327 1435.475586,1241.663574 1433.722046,1252.499634 
	C1431.808716,1264.324829 1429.949707,1276.158936 1428.025513,1287.982300 
	C1426.740723,1295.877197 1425.383423,1303.760254 1423.991211,1312.049438 
	C1348.667725,1312.049438 1273.971802,1312.049438 1199.221436,1312.049438 
	C1199.221436,1315.383789 1199.221436,1318.194824 1199.146729,1321.468750 
	C1199.060669,1377.969482 1199.045410,1434.007202 1199.045898,1490.045044 
	C1199.045898,1494.031250 1199.162354,1498.017456 1199.149414,1502.466797 
	C1199.063477,1541.494385 1199.036255,1580.058716 1199.050537,1618.623169 
	C1199.055542,1632.082886 1199.162842,1645.542725 1199.147705,1659.465576 
	C1199.062378,1675.543091 1199.026367,1691.157593 1199.049316,1706.772095 
	C1199.087158,1732.515137 1199.163330,1758.258057 1199.146729,1784.464111 
	C1199.120972,1812.619507 1199.171875,1840.311890 1199.146240,1868.466919 
	C1199.069824,1923.773438 1199.069824,1978.617310 1199.069824,2033.141968 
	C1195.577148,2034.190918 1192.668823,2035.064331 1189.346436,2035.951172 
	C1183.966675,2036.652344 1178.996216,2037.307617 1174.036133,2038.034058 
	C1160.568359,2040.006348 1147.146729,2042.384521 1133.627930,2043.892578 
	C1120.288818,2045.380615 1106.849976,2045.966919 1093.465820,2047.078491 
	C1092.596680,2047.150635 1091.819702,2048.333496 1091.000000,2049.000000 
z"/>
<path fill="#000000" opacity="1.000000" stroke="none" 
	d="
M1089.000000,0.999999 
	C1408.932251,1.000000 1728.864624,1.000000 2049.000000,1.000000 
	C2049.000000,323.030884 2049.000000,645.061829 2048.699707,967.828735 
	C2044.593506,966.696838 2047.291138,963.621094 2047.092896,961.128906 
	C2045.985840,947.213989 2045.147705,933.276794 2043.952759,919.370056 
	C2043.126831,909.758850 2042.062622,900.158447 2040.756226,890.600891 
	C2039.389526,880.603333 2037.658569,870.653870 2035.990845,860.699463 
	C2033.873657,848.061157 2031.899170,835.391846 2029.420776,822.823120 
	C2026.884521,809.961182 2024.008301,797.157410 2020.913330,784.417480 
	C2018.513672,774.538940 2015.547852,764.797913 2012.892822,754.603638 
	C2005.971802,732.019348 1999.214844,709.753967 1991.956665,687.653137 
	C1981.953613,657.193237 1969.734863,627.568298 1956.057983,598.606873 
	C1945.594238,576.449341 1933.955566,554.846558 1922.805176,532.649780 
	C1920.947998,530.109131 1918.707275,528.137329 1917.399170,525.670959 
	C1915.412476,521.925293 1914.630981,517.478638 1912.369507,513.950195 
	C1895.752686,488.023529 1879.087158,462.123749 1862.057739,436.467133 
	C1845.638184,411.729523 1827.010376,388.644989 1807.824585,365.662872 
	C1797.165527,353.348694 1786.753052,341.156128 1775.822510,329.447144 
	C1763.685669,316.446014 1751.086670,303.875854 1738.641968,291.164032 
	C1738.026489,290.535370 1736.962524,290.345886 1735.962158,289.628510 
	C1735.535034,288.734070 1735.391113,288.008453 1734.950684,287.614685 
	C1725.360229,279.041534 1715.736572,270.505371 1705.982178,261.651794 
	C1698.061035,254.557892 1690.384399,247.645981 1682.467407,241.021378 
	C1671.199097,231.592667 1659.961426,222.106049 1648.328125,213.140793 
	C1636.137939,203.746429 1623.495239,194.939011 1610.897339,185.564102 
	C1600.554077,178.377396 1590.484863,171.313019 1580.139160,164.679688 
	C1570.085938,158.233887 1559.821655,152.106644 1549.519287,146.062469 
	C1535.604614,137.899261 1521.636841,129.820633 1507.552124,121.955841 
	C1499.123169,117.249092 1490.427612,113.019852 1481.510376,108.320045 
	C1470.858765,103.045425 1460.747559,97.555374 1450.197876,93.104263 
	C1426.869629,83.261627 1403.501343,73.461494 1379.807007,64.554886 
	C1359.572144,56.948700 1338.970947,50.257511 1318.332886,43.797047 
	C1285.082886,33.388584 1251.347290,24.790539 1216.963745,18.976744 
	C1192.419556,14.826647 1167.891602,10.473894 1143.226929,7.181171 
	C1126.316895,4.923698 1109.181885,4.363883 1092.157959,2.920822 
	C1091.058960,2.827656 1090.050537,1.665094 1089.000000,0.999999 
z"/>
<path fill="#000000" opacity="1.000000" stroke="none" 
	d="
M1.000005,961.000000 
	C1.000000,641.067932 1.000000,321.135834 1.000000,1.000000 
	C320.697571,1.000000 640.395142,1.000000 960.777649,1.405673 
	C960.779175,2.198324 960.120483,2.868687 959.408875,2.930648 
	C943.382690,4.326001 927.331360,5.459545 911.325745,7.054551 
	C897.350952,8.447176 883.350403,9.878762 869.499146,12.138350 
	C852.213745,14.958175 834.946350,18.113852 817.892090,22.075283 
	C789.534241,28.662355 761.020691,34.910366 733.186523,43.330467 
	C703.519897,52.304890 674.481140,63.402611 645.339661,74.042786 
	C632.445496,78.750717 619.874207,84.393402 607.338379,90.017654 
	C595.420044,95.364868 583.739197,101.241333 571.586609,106.939789 
	C560.457886,112.665016 549.457703,117.929321 538.981689,124.085457 
	C512.160339,139.846802 485.481445,155.856766 458.947327,172.096878 
	C451.243195,176.812149 444.220123,182.640137 436.528503,187.981842 
	C425.442383,195.842209 414.592438,203.520645 404.015747,211.558762 
	C392.861389,220.035873 381.766205,228.615005 371.021545,237.599716 
	C361.704712,245.390442 352.914337,253.810669 343.543427,261.976440 
	C332.757538,271.651733 322.319489,281.303284 311.576599,291.084961 
	C288.831604,315.440796 266.391479,339.666534 243.635529,364.032593 
	C241.039917,366.759827 238.615768,369.234589 236.503983,371.952118 
	C223.904312,388.165710 211.246826,404.337341 198.883087,420.729980 
	C193.225586,428.231079 188.193954,436.204193 182.565048,444.099609 
	C180.763306,446.355927 179.205841,448.431030 177.797699,450.602936 
	C167.270981,466.839386 156.578125,482.973022 146.345428,499.393188 
	C140.779327,508.325012 136.010788,517.753906 130.571838,527.117310 
	C124.505890,537.822449 118.446465,548.216492 113.067154,558.951233 
	C105.136200,574.778137 97.392258,590.713867 90.123894,606.853271 
	C83.424103,621.730225 77.456665,636.937012 70.981956,652.334229 
	C70.320404,653.840759 69.781715,654.990601 69.375710,656.185425 
	C60.151405,683.333801 50.869938,710.463135 41.785072,737.658081 
	C39.787731,743.636963 38.498547,749.852417 36.550827,756.157471 
	C35.940384,757.618286 35.679092,758.884583 35.381878,760.142334 
	C30.587872,780.429260 25.619846,800.677124 21.056509,821.015747 
	C18.400166,832.854980 16.184566,844.804565 14.162623,856.770691 
	C12.808191,864.786377 12.141807,872.918213 10.975035,881.366211 
	C9.188439,893.335083 7.247836,904.901306 6.089869,916.545471 
	C4.709250,930.428589 4.034441,944.381287 2.921971,958.293274 
	C2.846207,959.240723 1.666372,960.099792 1.000005,961.000000 
z"/>
<path fill="#000000" opacity="1.000000" stroke="none" 
	d="
M862.071350,2034.069458 
	C869.197327,2035.379517 876.298279,2036.849976 883.454895,2037.963257 
	C894.993774,2039.757690 906.552551,2041.448120 918.135498,2042.927612 
	C925.426025,2043.859009 932.769958,2044.401001 940.100769,2044.980835 
	C949.584045,2045.731323 959.079834,2046.322632 968.563904,2047.064087 
	C969.270874,2047.119385 969.926514,2047.830566 970.302979,2048.618408 
	C647.073242,2049.000000 324.146484,2049.000000 1.000000,2049.000000 
	C1.000000,1729.312500 1.000000,1409.624878 1.417001,1089.282715 
	C2.220568,1089.472412 2.880169,1090.293823 2.952667,1091.164185 
	C4.013961,1103.906250 4.863316,1116.667236 6.036211,1129.398560 
	C7.205429,1142.089844 8.200546,1154.826660 10.132923,1167.411377 
	C13.089300,1186.664673 16.784575,1205.804565 20.104586,1225.394287 
	C22.384583,1236.926147 24.223524,1248.191406 27.168499,1259.159546 
	C34.116100,1285.035034 41.185265,1310.892456 48.992840,1336.517212 
	C54.288345,1353.897339 60.316891,1371.112671 67.092461,1387.969849 
	C77.763641,1414.518799 88.818291,1440.942139 100.708710,1466.962646 
	C109.113388,1485.354980 118.911293,1503.133057 128.576248,1520.919556 
	C135.247131,1533.196289 142.753281,1545.019165 149.937286,1557.403687 
	C162.306732,1576.430420 173.923233,1595.611328 187.110291,1613.643921 
	C206.217972,1639.772827 226.113922,1665.349487 246.358612,1690.612915 
	C257.390167,1704.379150 269.346527,1717.496094 281.756531,1730.044800 
	C300.314087,1748.808838 319.310303,1767.171753 338.741943,1785.028442 
	C354.223938,1799.255615 370.230194,1812.985352 386.738708,1826.003906 
	C406.841278,1841.856812 427.421539,1857.146118 448.319824,1871.937988 
	C481.633118,1895.517334 516.573181,1916.595947 552.897583,1935.150757 
	C580.926392,1949.468262 609.362732,1963.139038 638.316467,1975.454834 
	C671.358154,1989.509521 705.303223,2001.316528 739.813171,2011.483398 
	C776.351318,2022.247681 813.220093,2031.411987 850.704041,2038.231567 
	C856.059143,2039.205811 859.202698,2037.988159 862.071350,2034.069458 
z"/>
<path fill="#000000" opacity="1.000000" stroke="none" 
	d="
M1091.468628,2049.000000 
	C1091.819702,2048.333496 1092.596680,2047.150635 1093.465820,2047.078491 
	C1106.849976,2045.966919 1120.288818,2045.380615 1133.627930,2043.892578 
	C1147.146729,2042.384521 1160.568359,2040.006348 1174.036133,2038.034058 
	C1178.996216,2037.307617 1183.966675,2036.652344 1189.534180,2036.288208 
	C1192.541016,2037.369263 1195.087769,2039.056885 1197.325195,2038.715820 
	C1205.029419,2037.541260 1212.601807,2035.534180 1220.266724,2034.065186 
	C1255.833130,2027.247803 1290.766968,2017.927856 1325.231445,2006.926880 
	C1344.292603,2000.842407 1363.258789,1994.314087 1381.843506,1986.919922 
	C1408.172363,1976.444824 1434.386963,1965.588989 1460.125610,1953.754639 
	C1480.452515,1944.408813 1500.243164,1933.799927 1519.803223,1922.910034 
	C1538.878052,1912.290161 1557.501587,1900.832275 1576.044312,1889.294067 
	C1586.686523,1882.671997 1596.774170,1875.158691 1607.424561,1867.904541 
	C1610.552002,1865.828613 1613.431519,1863.982422 1616.169678,1861.946045 
	C1627.305786,1853.663818 1638.492432,1845.445312 1649.480957,1836.970459 
	C1660.744263,1828.283447 1671.999634,1819.564453 1682.882568,1810.412354 
	C1692.560059,1802.274048 1701.722900,1793.523682 1711.423584,1784.904419 
	C1717.735840,1779.423462 1724.063232,1774.401367 1729.678345,1768.680298 
	C1747.775757,1750.241333 1765.840942,1731.759521 1783.468262,1712.874023 
	C1795.675659,1699.795288 1807.214722,1686.087158 1818.889648,1672.520386 
	C1822.254395,1668.610474 1825.055176,1664.215454 1828.421021,1659.903320 
	C1829.546021,1658.938477 1830.488281,1658.203125 1831.164551,1657.274170 
	C1845.182007,1638.022339 1859.750366,1619.138428 1873.007690,1599.375488 
	C1887.906494,1577.165527 1901.836914,1554.292358 1915.736328,1531.432739 
	C1921.468750,1522.005005 1926.023071,1511.860962 1931.428711,1501.894287 
	C1943.155029,1478.100220 1955.026855,1454.662476 1965.822510,1430.739136 
	C1973.635376,1413.425293 1980.449707,1395.622803 1986.924194,1377.753662 
	C1993.715210,1359.010986 1999.569336,1339.928955 2005.996094,1320.642822 
	C2012.773315,1294.835571 2019.623047,1269.438477 2025.897705,1243.900391 
	C2028.844727,1231.905762 2030.756348,1219.652466 2033.006348,1207.492188 
	C2035.079956,1196.284546 2037.229370,1185.081055 2038.875122,1173.807251 
	C2040.220703,1164.589111 2040.873779,1155.270020 2042.029053,1145.622559 
	C2042.426758,1144.993042 2042.786499,1144.749634 2042.808960,1144.478394 
	C2044.223145,1127.280762 2045.572266,1110.077393 2047.071167,1092.887329 
	C2047.188110,1091.545776 2048.333008,1090.293701 2049.000000,1089.000000 
	C2049.000000,1408.927002 2049.000000,1728.854004 2049.000000,2049.000000 
	C1729.979126,2049.000000 1410.958130,2049.000000 1091.468628,2049.000000 
z"/>
<path fill="#0E8DF1" opacity="1.000000" stroke="none" 
	d="
M2012.833496,754.995850 
	C2015.547852,764.797913 2018.513672,774.538940 2020.913330,784.417480 
	C2024.008301,797.157410 2026.884521,809.961182 2029.420776,822.823120 
	C2031.899170,835.391846 2033.873657,848.061157 2035.990845,860.699463 
	C2037.658569,870.653870 2039.389526,880.603333 2040.756226,890.600891 
	C2042.062622,900.158447 2043.126831,909.758850 2043.952759,919.370056 
	C2045.147705,933.276794 2045.985840,947.213989 2047.092896,961.128906 
	C2047.291138,963.621094 2044.593506,966.696838 2048.699707,968.282349 
	C2049.000000,972.356873 2049.000000,976.713806 2048.584473,981.588562 
	C2045.549438,982.404297 2042.929688,982.962585 2040.309937,982.963013 
	C1759.947754,983.003601 1479.585571,983.002502 1199.223389,983.003723 
	C1199.160889,978.844849 1199.045654,974.685913 1199.043823,970.527039 
	C1199.020752,917.569153 1198.691650,864.608276 1199.172852,811.654846 
	C1199.347656,792.408630 1203.171997,773.517456 1210.831787,755.172363 
	C1213.037476,754.954834 1214.536621,754.997192 1216.035889,754.997192 
	C1481.635132,754.998779 1747.234253,754.997253 2012.833496,754.995850 
z"/>
<path fill="#0B85EE" opacity="1.000000" stroke="none" 
	d="
M20.166199,1224.992676 
	C16.784575,1205.804565 13.089300,1186.664673 10.132923,1167.411377 
	C8.200546,1154.826660 7.205429,1142.089844 6.036211,1129.398560 
	C4.863316,1116.667236 4.013961,1103.906250 2.952667,1091.164185 
	C2.880169,1090.293823 2.220568,1089.472412 1.417001,1088.814087 
	C1.000000,1063.312500 1.000000,1037.624878 1.415460,1011.521545 
	C4.450991,1011.403870 7.071025,1011.962646 9.691136,1011.963013 
	C293.426605,1012.003174 577.162048,1012.001404 860.897522,1012.002075 
	C860.897522,1016.136108 860.897522,1020.270142 860.897522,1025.021362 
	C776.150208,1025.021362 691.545837,1025.021362 606.218994,1025.075195 
	C605.406433,1025.424438 605.316345,1025.720093 605.226196,1026.015625 
	C605.181702,1046.635742 605.109619,1067.255859 605.098145,1087.875977 
	C605.072449,1133.943848 605.077026,1180.011719 604.522095,1226.540039 
	C415.874451,1227.000488 227.773880,1227.020264 39.673401,1226.915527 
	C33.170643,1226.911865 26.668581,1225.661743 20.166199,1224.992676 
z"/>
<path fill="#0D8AF0" opacity="1.000000" stroke="none" 
	d="
M860.980469,1011.539551 
	C577.162048,1012.001404 293.426605,1012.003174 9.691136,1011.963013 
	C7.071025,1011.962646 4.450991,1011.403870 1.415460,1011.052856 
	C1.000000,994.645752 1.000000,978.291565 1.000005,961.468628 
	C1.666372,960.099792 2.846207,959.240723 2.921971,958.293274 
	C4.034441,944.381287 4.709250,930.428589 6.089869,916.545471 
	C7.247836,904.901306 9.188439,893.335083 11.387104,881.378906 
	C14.943460,881.348999 17.895191,881.959106 20.847019,881.959595 
	C300.863678,882.003479 580.880371,882.000977 860.897095,882.001526 
	C860.962463,902.598083 861.059448,923.194580 861.084717,943.791199 
	C861.112305,966.219788 861.073303,988.648438 860.980469,1011.539551 
z"/>
<path fill="#0B85EE" opacity="1.000000" stroke="none" 
	d="
M1199.149658,983.466980 
	C1479.585571,983.002502 1759.947754,983.003601 2040.309937,982.963013 
	C2042.929688,982.962585 2045.549438,982.404297 2048.584473,982.053223 
	C2049.000000,1017.354248 2049.000000,1052.708496 2049.000000,1088.531372 
	C2048.333008,1090.293701 2047.188110,1091.545776 2047.071167,1092.887329 
	C2045.572266,1110.077393 2044.223145,1127.280762 2042.808960,1144.478394 
	C2042.786499,1144.749634 2042.426758,1144.993042 2041.571533,1145.624390 
	C1844.338135,1146.000488 1647.757812,1146.001709 1451.177490,1146.002930 
	C1453.747070,1129.612061 1456.348633,1113.225952 1458.877319,1096.828857 
	C1461.304321,1081.091187 1463.597412,1065.332886 1466.065430,1049.601807 
	C1467.209229,1042.310913 1468.640991,1035.065308 1469.905518,1027.792847 
	C1470.038818,1027.026001 1469.923462,1026.215942 1469.923462,1024.969238 
	C1380.048950,1024.969238 1290.478760,1024.969238 1200.358887,1024.721680 
	C1199.657593,1024.263916 1199.460571,1024.112793 1199.218262,1024.020752 
	C1199.170776,1010.657227 1199.123291,997.293762 1199.149658,983.466980 
z"/>
<path fill="#18ACFE" opacity="1.000000" stroke="none" 
	d="
M571.953918,106.885071 
	C583.739197,101.241333 595.420044,95.364868 607.338379,90.017654 
	C619.874207,84.393402 632.445496,78.750717 645.339661,74.042786 
	C674.481140,63.402611 703.519897,52.304890 733.186523,43.330467 
	C761.020691,34.910366 789.534241,28.662355 817.892090,22.075283 
	C834.946350,18.113852 852.213745,14.958175 869.499146,12.138350 
	C883.350403,9.878762 897.350952,8.447176 911.325745,7.054551 
	C927.331360,5.459545 943.382690,4.326001 959.408875,2.930648 
	C960.120483,2.868687 960.779175,2.198324 961.231262,1.405673 
	C1003.354248,1.000000 1045.708496,1.000000 1088.531372,0.999999 
	C1090.050537,1.665094 1091.058960,2.827656 1092.157959,2.920822 
	C1109.181885,4.363883 1126.316895,4.923698 1143.226929,7.181171 
	C1167.891602,10.473894 1192.419556,14.826647 1216.963745,18.976744 
	C1251.347290,24.790539 1285.082886,33.388584 1318.332886,43.797047 
	C1338.970947,50.257511 1359.572144,56.948700 1379.807007,64.554886 
	C1403.501343,73.461494 1426.869629,83.261627 1450.197876,93.104263 
	C1460.747559,97.555374 1470.858765,103.045425 1480.894287,108.397484 
	C1477.790771,108.820564 1474.961914,108.988747 1472.132935,108.988861 
	C1174.507446,109.000748 876.881958,109.000046 579.256470,108.999031 
	C577.590149,108.999031 575.875732,109.215973 574.276550,108.884270 
	C573.401794,108.702820 572.721741,107.582176 571.953918,106.885071 
z"/>
<path fill="#0879E9" opacity="1.000000" stroke="none" 
	d="
M20.104580,1225.394287 
	C26.668581,1225.661743 33.170643,1226.911865 39.673401,1226.915527 
	C227.773880,1227.020264 415.874451,1227.000488 604.436768,1227.002197 
	C604.962158,1253.316406 605.026001,1279.628784 605.088623,1305.941284 
	C605.092896,1307.726196 605.089172,1309.511108 605.089172,1311.645996 
	C690.501709,1311.645996 775.395325,1311.645996 861.072144,1311.645996 
	C861.072144,1393.026978 861.072144,1474.054077 860.523071,1555.541016 
	C633.229248,1556.000732 406.484436,1555.987061 179.739655,1556.044189 
	C169.788406,1556.046753 159.837311,1556.696533 149.886169,1557.044800 
	C142.753281,1545.019165 135.247131,1533.196289 128.576248,1520.919556 
	C118.911293,1503.133057 109.113388,1485.354980 100.708710,1466.962646 
	C88.818291,1440.942139 77.763641,1414.518799 67.092461,1387.969849 
	C60.316891,1371.112671 54.288345,1353.897339 48.992840,1336.517212 
	C41.185265,1310.892456 34.116100,1285.035034 27.168499,1259.159546 
	C24.223524,1248.191406 22.384583,1236.926147 20.104580,1225.394287 
z"/>
<path fill="#036BE4" opacity="1.000000" stroke="none" 
	d="
M149.937286,1557.403687 
	C159.837311,1556.696533 169.788406,1556.046753 179.739655,1556.044189 
	C406.484436,1555.987061 633.229248,1556.000732 860.435913,1556.002930 
	C860.959351,1558.164917 861.074768,1560.324951 861.074951,1562.484985 
	C861.091919,1717.332642 861.098450,1872.180420 861.122803,2027.028076 
	C861.123108,2029.176880 861.339783,2031.325684 861.763428,2033.771973 
	C859.202698,2037.988159 856.059143,2039.205811 850.704041,2038.231567 
	C813.220093,2031.411987 776.351318,2022.247681 739.813171,2011.483398 
	C705.303223,2001.316528 671.358154,1989.509521 638.316467,1975.454834 
	C609.362732,1963.139038 580.926392,1949.468262 552.897583,1935.150757 
	C516.573181,1916.595947 481.633118,1895.517334 448.319824,1871.937988 
	C427.421539,1857.146118 406.841278,1841.856812 386.738708,1826.003906 
	C370.230194,1812.985352 354.223938,1799.255615 338.741943,1785.028442 
	C319.310303,1767.171753 300.314087,1748.808838 281.756531,1730.044800 
	C269.346527,1717.496094 257.390167,1704.379150 246.358612,1690.612915 
	C226.113922,1665.349487 206.217972,1639.772827 187.110291,1613.643921 
	C173.923233,1595.611328 162.306732,1576.430420 149.937286,1557.403687 
z"/>
<path fill="#149FF8" opacity="1.000000" stroke="none" 
	d="
M182.878479,443.963226 
	C188.193954,436.204193 193.225586,428.231079 198.883087,420.729980 
	C211.246826,404.337341 223.904312,388.165710 236.503983,371.952118 
	C238.615768,369.234589 241.039917,366.759827 243.867661,364.350403 
	C246.966873,365.018646 249.518097,365.938965 252.069412,365.939270 
	C770.660522,366.001312 1289.251587,365.998505 1807.842651,365.997742 
	C1827.010376,388.644989 1845.638184,411.729523 1862.057739,436.467133 
	C1879.087158,462.123749 1895.752686,488.023529 1912.369507,513.950195 
	C1914.630981,517.478638 1915.412476,521.925293 1917.399170,525.670959 
	C1918.707275,528.137329 1920.947998,530.109131 1922.445557,532.739807 
	C1921.002563,536.904846 1918.227905,537.063660 1914.880859,537.061951 
	C1771.948364,536.990845 1629.015991,537.001770 1486.083496,537.002686 
	C1486.015747,508.021973 1485.942627,479.041229 1485.883301,450.060516 
	C1485.863892,440.584167 1485.880249,431.107727 1485.880249,421.129517 
	C1478.850708,420.057678 1472.062622,418.943237 1465.250488,418.001923 
	C1453.980835,416.444733 1442.705688,414.919159 1431.414673,413.527466 
	C1418.489624,411.934387 1405.550903,410.446350 1392.606812,409.015778 
	C1380.298340,407.655457 1367.976807,406.410339 1355.657227,405.151978 
	C1351.387939,404.715942 1347.113525,404.283539 1342.830566,404.037445 
	C1330.124268,403.307281 1317.420044,402.372345 1304.701538,402.062653 
	C1281.607300,401.500305 1258.493896,400.791992 1235.407104,401.198486 
	C1221.269287,401.447418 1207.167358,403.673645 1193.046997,404.985535 
	C1162.794800,407.796234 1133.382568,414.674835 1104.786011,424.624847 
	C1087.657837,430.584503 1071.126099,438.258270 1053.572754,445.065125 
	C1050.214111,444.645782 1047.609009,444.040527 1045.003784,444.040100 
	C788.948303,443.997101 532.892822,444.001251 276.837341,443.998383 
	C245.517715,443.998016 214.198090,443.975494 182.878479,443.963226 
z"/>
<path fill="#0778E9" opacity="1.000000" stroke="none" 
	d="
M2005.832886,1320.995239 
	C1999.569336,1339.928955 1993.715210,1359.010986 1986.924194,1377.753662 
	C1980.449707,1395.622803 1973.635376,1413.425293 1965.822510,1430.739136 
	C1955.026855,1454.662476 1943.155029,1478.100220 1930.952515,1501.881348 
	C1686.515503,1502.012451 1442.869995,1502.008057 1199.224487,1502.003662 
	C1199.162354,1498.017456 1199.045898,1494.031250 1199.045898,1490.045044 
	C1199.045410,1434.007202 1199.060669,1377.969482 1199.600708,1321.467285 
	C1468.697266,1321.000244 1737.265015,1320.997681 2005.832886,1320.995239 
z"/>
<path fill="#1195F5" opacity="1.000000" stroke="none" 
	d="
M1486.004150,537.465454 
	C1629.015991,537.001770 1771.948364,536.990845 1914.880859,537.061951 
	C1918.227905,537.063660 1921.002563,536.904846 1922.479736,533.087097 
	C1933.955566,554.846558 1945.594238,576.449341 1956.057983,598.606873 
	C1969.734863,627.568298 1981.953613,657.193237 1991.956665,687.653137 
	C1999.214844,709.753967 2005.971802,732.019348 2012.892822,754.603638 
	C1747.234253,754.997253 1481.635132,754.998779 1216.035889,754.997192 
	C1214.536621,754.997192 1213.037476,754.954834 1211.035767,754.887878 
	C1221.541748,725.816589 1242.316528,706.546021 1270.736816,695.188171 
	C1286.694946,688.810669 1303.304321,684.685730 1320.544189,684.051147 
	C1345.258057,683.141541 1369.983032,682.339539 1394.710083,682.042175 
	C1423.036011,681.701477 1451.369141,681.963196 1479.699219,681.963196 
	C1481.516235,681.963196 1483.333252,681.963257 1485.924927,681.963257 
	C1485.924927,633.764099 1485.924927,585.846130 1486.004150,537.465454 
z"/>
<path fill="#0571E6" opacity="1.000000" stroke="none" 
	d="
M1199.149414,1502.466797 
	C1442.869995,1502.008057 1686.515503,1502.012451 1930.637207,1502.029785 
	C1926.023071,1511.860962 1921.468750,1522.005005 1915.736328,1531.432739 
	C1901.836914,1554.292358 1887.906494,1577.165527 1873.007690,1599.375488 
	C1859.750366,1619.138428 1845.182007,1638.022339 1831.164551,1657.274170 
	C1830.488281,1658.203125 1829.546021,1658.938477 1827.990234,1659.881958 
	C1824.467163,1659.666748 1821.681519,1659.041992 1818.895508,1659.041382 
	C1612.338135,1658.996826 1405.780884,1659.001709 1199.223389,1659.002441 
	C1199.162842,1645.542725 1199.055542,1632.082886 1199.050537,1618.623169 
	C1199.036255,1580.058716 1199.063477,1541.494385 1199.149414,1502.466797 
z"/>
<path fill="#0F8FF2" opacity="1.000000" stroke="none" 
	d="
M860.979248,881.538940 
	C580.880371,882.000977 300.863678,882.003479 20.847019,881.959595 
	C17.895191,881.959106 14.943460,881.348999 11.579615,881.010742 
	C12.141807,872.918213 12.808191,864.786377 14.162623,856.770691 
	C16.184566,844.804565 18.400166,832.854980 21.056509,821.015747 
	C25.619846,800.677124 30.587872,780.429260 35.381878,760.142334 
	C35.679092,758.884583 35.940384,757.618286 37.027107,756.169800 
	C312.501892,755.989990 587.167969,755.996399 861.834045,756.002808 
	C861.588318,770.236694 861.192139,784.469849 861.128967,798.704529 
	C861.007019,826.161377 861.073242,853.619019 860.979248,881.538940 
z"/>
<path fill="#097FEC" opacity="1.000000" stroke="none" 
	d="
M2005.996094,1320.642822 
	C1737.265015,1320.997681 1468.697266,1321.000244 1199.675415,1321.004395 
	C1199.221436,1318.194824 1199.221436,1315.383789 1199.221436,1312.049438 
	C1273.971802,1312.049438 1348.667725,1312.049438 1423.991211,1312.049438 
	C1425.383423,1303.760254 1426.740723,1295.877197 1428.025513,1287.982300 
	C1429.949707,1276.158936 1431.808716,1264.324829 1433.722046,1252.499634 
	C1435.475586,1241.663574 1437.277710,1230.835327 1439.033936,1219.999756 
	C1441.830811,1202.743408 1444.598145,1185.482178 1447.397461,1168.226318 
	C1448.556885,1161.078491 1449.767334,1153.938965 1451.066162,1146.399292 
	C1647.757812,1146.001709 1844.338135,1146.000488 2041.375977,1145.997437 
	C2040.873779,1155.270020 2040.220703,1164.589111 2038.875122,1173.807251 
	C2037.229370,1185.081055 2035.079956,1196.284546 2033.006348,1207.492188 
	C2030.756348,1219.652466 2028.844727,1231.905762 2025.897705,1243.900391 
	C2019.623047,1269.438477 2012.773315,1294.835571 2005.996094,1320.642822 
z"/>
<path fill="#1298F6" opacity="1.000000" stroke="none" 
	d="
M71.166626,651.998474 
	C77.456665,636.937012 83.424103,621.730225 90.123894,606.853271 
	C97.392258,590.713867 105.136200,574.778137 113.067154,558.951233 
	C118.446465,548.216492 124.505890,537.822449 130.950867,527.092529 
	C135.253723,525.939331 138.866440,524.122559 142.480072,524.120789 
	C409.205139,523.988586 675.930298,523.991028 942.655334,524.131653 
	C945.239685,524.132996 947.822998,526.119995 950.406799,527.179993 
	C938.690491,543.885315 926.228455,560.125244 915.440430,577.409973 
	C900.885315,600.730469 890.767822,626.237244 881.705566,652.627563 
	C878.483582,652.590576 875.864380,652.037048 873.244995,652.036682 
	C605.885559,651.997009 338.526093,651.999023 71.166626,651.998474 
z"/>
<path fill="#1093F4" opacity="1.000000" stroke="none" 
	d="
M70.981949,652.334229 
	C338.526093,651.999023 605.885559,651.997009 873.244995,652.036682 
	C875.864380,652.037048 878.483582,652.590576 881.512512,652.942993 
	C878.920715,664.158691 875.673157,675.258484 872.992310,686.493408 
	C870.663391,696.253418 868.562439,706.105896 867.110291,716.027283 
	C865.342529,728.104736 864.375305,740.298828 863.005798,752.436157 
	C862.900146,753.372620 862.351624,754.259155 861.921448,755.585815 
	C587.167969,755.996399 312.501892,755.989990 37.359539,755.971252 
	C38.498547,749.852417 39.787731,743.636963 41.785072,737.658081 
	C50.869938,710.463135 60.151405,683.333801 69.375710,656.185425 
	C69.781715,654.990601 70.320404,653.840759 70.981949,652.334229 
z"/>
<path fill="#036CE4" opacity="1.000000" stroke="none" 
	d="
M1199.147705,1659.465576 
	C1405.780884,1659.001709 1612.338135,1658.996826 1818.895508,1659.041382 
	C1821.681519,1659.041992 1824.467163,1659.666748 1827.683838,1660.021362 
	C1825.055176,1664.215454 1822.254395,1668.610474 1818.889648,1672.520386 
	C1807.214722,1686.087158 1795.675659,1699.795288 1783.468262,1712.874023 
	C1765.840942,1731.759521 1747.775757,1750.241333 1729.678345,1768.680298 
	C1724.063232,1774.401367 1717.735840,1779.423462 1711.000854,1784.843994 
	C1707.815674,1784.615112 1705.364136,1784.038818 1702.912354,1784.038208 
	C1535.015991,1783.996338 1367.119751,1784.000732 1199.223389,1784.001099 
	C1199.163330,1758.258057 1199.087158,1732.515137 1199.049316,1706.772095 
	C1199.026367,1691.157593 1199.062378,1675.543091 1199.147705,1659.465576 
z"/>
<path fill="#139DF8" opacity="1.000000" stroke="none" 
	d="
M950.681213,527.012390 
	C947.822998,526.119995 945.239685,524.132996 942.655334,524.131653 
	C675.930298,523.991028 409.205139,523.988586 142.480072,524.120789 
	C138.866440,524.122559 135.253723,525.939331 131.261551,526.933838 
	C136.010788,517.753906 140.779327,508.325012 146.345428,499.393188 
	C156.578125,482.973022 167.270981,466.839386 177.797699,450.602936 
	C179.205841,448.431030 180.763306,446.355927 182.565033,444.099609 
	C214.198090,443.975494 245.517715,443.998016 276.837341,443.998383 
	C532.892822,444.001251 788.948303,443.997101 1045.003784,444.040100 
	C1047.609009,444.040527 1050.214111,444.645782 1053.245605,445.199707 
	C1037.315186,455.913025 1020.593994,465.875092 1004.692932,477.008392 
	C984.555420,491.107941 967.042603,508.261963 950.681213,527.012390 
z"/>
<path fill="#0164E1" opacity="1.000000" stroke="none" 
	d="
M1607.111450,1868.046631 
	C1596.774170,1875.158691 1586.686523,1882.671997 1576.044312,1889.294067 
	C1557.501587,1900.832275 1538.878052,1912.290161 1519.803223,1922.910034 
	C1500.243164,1933.799927 1480.452515,1944.408813 1460.125610,1953.754639 
	C1434.386963,1965.588989 1408.172363,1976.444824 1381.843506,1986.919922 
	C1363.258789,1994.314087 1344.292603,2000.842407 1325.231445,2006.926880 
	C1290.766968,2017.927856 1255.833130,2027.247803 1220.266724,2034.065186 
	C1212.601807,2035.534180 1205.029419,2037.541260 1197.325195,2038.715820 
	C1195.087769,2039.056885 1192.541016,2037.369263 1189.948242,2036.274658 
	C1192.668823,2035.064331 1195.577148,2034.190918 1199.069824,2033.141968 
	C1199.069824,1978.617310 1199.069824,1923.773438 1199.600342,1868.465576 
	C1331.403198,1868.001099 1462.675415,1868.005127 1593.947754,1867.966919 
	C1596.574097,1867.966187 1599.197510,1867.308105 1601.827148,1867.268311 
	C1603.584229,1867.241577 1605.349731,1867.767822 1607.111450,1868.046631 
z"/>
<path fill="#0268E2" opacity="1.000000" stroke="none" 
	d="
M1607.424561,1867.904541 
	C1605.349731,1867.767822 1603.584229,1867.241577 1601.827148,1867.268311 
	C1599.197510,1867.308105 1596.574097,1867.966187 1593.947754,1867.966919 
	C1462.675415,1868.005127 1331.403198,1868.001099 1199.676758,1868.002930 
	C1199.171875,1840.311890 1199.120972,1812.619507 1199.146729,1784.464111 
	C1367.119751,1784.000732 1535.015991,1783.996338 1702.912354,1784.038208 
	C1705.364136,1784.038818 1707.815674,1784.615112 1710.690186,1784.983032 
	C1701.722900,1793.523682 1692.560059,1802.274048 1682.882568,1810.412354 
	C1671.999634,1819.564453 1660.744263,1828.283447 1649.480957,1836.970459 
	C1638.492432,1845.445312 1627.305786,1853.663818 1616.169678,1861.946045 
	C1613.431519,1863.982422 1610.552002,1865.828613 1607.424561,1867.904541 
z"/>
<path fill="#D8EBFC" opacity="1.000000" stroke="none" 
	d="
M605.400146,1025.917480 
	C605.316345,1025.720093 605.406433,1025.424438 605.755981,1025.145020 
	C605.926147,1025.419189 605.779053,1025.638550 605.400146,1025.917480 
z"/>
<path fill="#0E8DF1" opacity="1.000000" stroke="none" 
	d="
M1199.181396,1024.264404 
	C1199.460571,1024.112793 1199.657593,1024.263916 1199.895020,1024.641968 
	C1199.980713,1024.809692 1199.490601,1024.858398 1199.490601,1024.858398 
	C1199.490601,1024.858398 1199.144531,1024.507935 1199.181396,1024.264404 
z"/>
<path fill="#15A2FA" opacity="1.000000" stroke="none" 
	d="
M1807.824585,365.662872 
	C1289.251587,365.998505 770.660522,366.001312 252.069412,365.939270 
	C249.518097,365.938965 246.966873,365.018646 244.183472,364.210114 
	C266.391479,339.666534 288.831604,315.440796 312.052856,291.098633 
	C785.323303,290.988098 1257.812622,290.995300 1730.302002,290.956787 
	C1732.237061,290.956635 1734.172241,290.301270 1736.107300,289.951904 
	C1736.962524,290.345886 1738.026489,290.535370 1738.641968,291.164032 
	C1751.086670,303.875854 1763.685669,316.446014 1775.822510,329.447144 
	C1786.753052,341.156128 1797.165527,353.348694 1807.824585,365.662872 
z"/>
<path fill="#16A6FB" opacity="1.000000" stroke="none" 
	d="
M343.891266,261.952667 
	C352.914337,253.810669 361.704712,245.390442 371.021545,237.599716 
	C381.766205,228.615005 392.861389,220.035873 404.015747,211.558762 
	C414.592438,203.520645 425.442383,195.842209 437.004608,187.994415 
	C438.670074,187.988678 439.503143,187.998901 440.336182,187.998901 
	C828.373230,187.999725 1216.410278,187.999893 1604.447388,187.999100 
	C1605.613525,187.999100 1606.869385,188.255447 1607.921509,187.905579 
	C1609.063354,187.525955 1610.015503,186.576141 1611.050415,185.875000 
	C1623.495239,194.939011 1636.137939,203.746429 1648.328125,213.140793 
	C1659.961426,222.106049 1671.199097,231.592667 1682.467407,241.021378 
	C1690.384399,247.645981 1698.061035,254.557892 1705.539795,261.663025 
	C1701.945923,262.322998 1698.656982,262.957672 1695.368164,262.958008 
	C1248.749878,263.002167 802.131470,263.002625 355.513153,262.956665 
	C351.639160,262.956268 347.765228,262.301758 343.891266,261.952667 
z"/>
<path fill="#17A9FC" opacity="1.000000" stroke="none" 
	d="
M1610.897339,185.564087 
	C1610.015503,186.576141 1609.063354,187.525955 1607.921509,187.905579 
	C1606.869385,188.255447 1605.613525,187.999100 1604.447388,187.999100 
	C1216.410278,187.999893 828.373230,187.999725 440.336182,187.998901 
	C439.503143,187.998901 438.670074,187.988678 437.360962,187.970642 
	C444.220123,182.640137 451.243195,176.812149 458.947327,172.096878 
	C485.481445,155.856766 512.160339,139.846802 538.981689,124.085457 
	C549.457703,117.929321 560.457886,112.665016 571.586609,106.939789 
	C572.721741,107.582176 573.401794,108.702820 574.276550,108.884270 
	C575.875732,109.215973 577.590149,108.999031 579.256470,108.999031 
	C876.881958,109.000046 1174.507446,109.000748 1472.132935,108.988861 
	C1474.961914,108.988747 1477.790771,108.820564 1481.235840,108.653404 
	C1490.427612,113.019852 1499.123169,117.249092 1507.552124,121.955841 
	C1521.636841,129.820633 1535.604614,137.899261 1549.519287,146.062469 
	C1559.821655,152.106644 1570.085938,158.233887 1580.139160,164.679688 
	C1590.484863,171.313019 1600.554077,178.377396 1610.897339,185.564087 
z"/>
<path fill="#15A4FB" opacity="1.000000" stroke="none" 
	d="
M343.543427,261.976440 
	C347.765228,262.301758 351.639160,262.956268 355.513153,262.956665 
	C802.131470,263.002625 1248.749878,263.002167 1695.368164,262.958008 
	C1698.656982,262.957672 1701.945923,262.322998 1705.677002,261.973267 
	C1715.736572,270.505371 1725.360229,279.041534 1734.950684,287.614685 
	C1735.391113,288.008453 1735.535034,288.734070 1735.962158,289.628510 
	C1734.172241,290.301270 1732.237061,290.956635 1730.302002,290.956787 
	C1257.812622,290.995300 785.323303,290.988098 312.357697,290.968506 
	C322.319489,281.303284 332.757538,271.651733 343.543427,261.976440 
z"/>
</svg>