<svg version="1.1" id="Layer_1" xmlns="http://www.w3.org/2000/svg" xmlns:xlink="http://www.w3.org/1999/xlink" x="0px" y="0px"
	 width="100%" viewBox="0 0 221 228" enable-background="new 0 0 221 228" xml:space="preserve">
<path fill="#FDFEFE" opacity="1.000000" stroke="none" 
	d="
M131.000000,229.000000 
	C87.333336,229.000000 44.166672,229.000000 1.000006,229.000000 
	C1.000004,153.000000 1.000004,77.000015 1.000002,1.000016 
	C74.666656,1.000011 148.333313,1.000011 221.999969,1.000005 
	C221.999985,76.999985 221.999985,152.999969 222.000000,228.999969 
	C191.833328,229.000000 161.666672,229.000000 131.000000,229.000000 
M118.049797,21.997019 
	C111.050720,22.071291 104.051636,22.145563 96.321442,22.254478 
	C84.717758,27.910086 72.259094,32.303684 61.679550,39.471004 
	C35.688599,57.079071 18.555977,80.595673 17.606705,113.547989 
	C16.477888,152.732819 45.894917,189.154816 84.561211,195.740143 
	C92.402000,197.075531 99.849503,195.763138 106.219444,189.577530 
	C105.267891,189.277725 104.982323,189.123718 104.687767,189.104004 
	C60.406639,186.138870 27.873919,143.261917 38.990864,97.219246 
	C46.261818,67.105377 71.716965,45.894699 104.461906,42.188644 
	C105.999435,42.014629 107.929985,41.678020 108.893555,40.668713 
	C114.394028,34.907166 119.656654,28.918545 125.457176,22.779129 
	C124.978745,22.568201 124.500305,22.357273 123.189362,21.997705 
	C121.784218,22.045551 120.379082,22.093397 118.049797,21.997019 
M154.341858,171.866806 
	C176.850403,153.256836 185.762619,129.480637 180.443924,100.819450 
	C177.145386,83.044479 167.362411,68.995178 152.899078,58.246841 
	C137.988052,47.165802 120.944229,43.491947 102.818314,45.123795 
	C62.858410,48.721306 33.549412,88.349480 41.210503,127.935135 
	C51.352844,180.341660 110.468895,203.627853 154.341858,171.866806 
M129.155716,206.141479 
	C130.773178,205.813110 132.468323,205.693756 133.996765,205.125824 
	C171.517914,191.183502 195.799500,165.890717 202.505112,125.401924 
	C209.376556,83.911827 180.857254,43.942413 139.462311,37.105331 
	C130.886307,35.688862 122.818802,36.045284 114.797569,41.942051 
	C118.669464,42.464012 121.647667,42.741276 124.577950,43.279419 
	C160.251740,49.830898 187.932404,80.568985 184.894699,121.296867 
	C182.201904,157.400284 154.203201,186.169830 117.327156,189.062271 
	C116.034431,189.163666 114.329010,189.162277 113.559944,189.942322 
	C108.639565,194.932999 103.927597,200.129150 98.286552,206.180893 
	C109.263771,206.180893 118.745239,206.180893 129.155716,206.141479 
z"/>
<path fill="#24458E" opacity="1.000000" stroke="none" 
	d="
M154.047241,172.066498 
	C110.468895,203.627853 51.352844,180.341660 41.210503,127.935135 
	C33.549412,88.349480 62.858410,48.721306 102.818314,45.123795 
	C120.944229,43.491947 137.988052,47.165802 152.899078,58.246841 
	C167.362411,68.995178 177.145386,83.044479 180.443924,100.819450 
	C185.762619,129.480637 176.850403,153.256836 154.047241,172.066498 
M129.436371,159.848648 
	C129.721390,159.681778 129.976486,159.477539 130.652710,159.286453 
	C130.976974,159.356140 131.260391,159.277847 132.181564,159.396515 
	C132.817856,159.027130 133.454163,158.657761 134.819839,158.141647 
	C135.729691,157.768082 136.639526,157.394501 138.063278,156.966476 
	C138.412888,156.242859 138.762497,155.519257 139.795395,154.651215 
	C140.022675,153.892258 140.249939,153.133301 140.239059,153.169662 
	C142.624969,151.605972 145.406540,150.524033 147.138107,148.530182 
	C160.287155,133.389496 164.081909,116.068367 156.357971,97.472458 
	C148.461014,78.459961 133.643387,67.688766 112.790176,66.981697 
	C91.950554,66.275085 76.665085,76.077347 67.106773,94.344452 
	C58.470482,110.849457 61.053131,132.757309 72.499672,144.946030 
	C72.742241,144.253922 72.955582,143.645187 73.589027,142.747787 
	C73.631371,142.432083 73.673714,142.116394 73.819954,141.797379 
	C73.819954,141.797379 73.835800,141.900131 74.472084,141.955917 
	C74.893555,141.957611 75.315033,141.959290 75.837631,142.775681 
	C75.857628,144.409821 75.877617,146.043961 75.309380,148.019287 
	C77.193810,149.964325 79.078247,151.909378 81.473709,154.054153 
	C81.665787,154.352615 81.857872,154.651062 82.406097,155.577957 
	C83.097588,155.772720 83.789070,155.967468 84.570312,156.713821 
	C85.429039,157.053055 86.287766,157.392288 87.474258,158.371353 
	C89.817192,159.162857 92.160126,159.954361 94.601875,160.802841 
	C94.601875,160.802841 94.714195,160.639603 95.332390,160.445724 
	C95.574844,160.091461 95.817299,159.737183 96.441849,159.477188 
	C96.684395,159.605728 96.857834,159.796951 97.227882,160.519592 
	C97.527649,160.710236 97.827415,160.900894 98.394073,161.714249 
	C99.283379,161.765076 100.172684,161.815903 101.722618,162.171249 
	C104.328506,163.445145 106.880676,165.608658 109.553741,165.770065 
	C112.973274,165.976547 116.490242,164.569305 120.404152,163.917831 
	C120.404152,163.917831 120.846992,163.905457 121.564713,163.864853 
	C123.393990,162.617844 125.223267,161.370834 127.437172,159.944580 
	C127.437172,159.944580 127.861511,159.941879 128.420120,160.048203 
	C128.608749,160.047272 128.797363,160.046356 129.436371,159.848648 
M150.112274,65.924248 
	C150.112274,65.924248 149.981873,66.168167 149.318115,66.601501 
	C148.190430,68.009644 147.062729,69.417786 145.300568,70.975479 
	C144.868652,71.014717 144.436737,71.053955 143.855301,70.407272 
	C144.530899,69.031898 145.206482,67.656517 146.222092,65.689186 
	C147.899933,64.170570 151.197220,62.691544 145.988419,60.394833 
	C143.427002,58.106659 140.351608,57.408268 138.156006,60.149727 
	C136.665543,62.010735 135.543976,65.259293 136.094803,67.418617 
	C137.025909,71.068665 140.528900,71.739037 144.067963,71.660141 
	C144.094482,72.101677 144.121017,72.543205 143.901428,73.510719 
	C144.017197,73.665848 144.132980,73.820969 144.689087,74.487556 
	C145.816742,74.580940 146.944412,74.674316 148.165573,75.520241 
	C148.726990,78.916115 149.854416,81.751480 154.030853,82.406509 
	C154.617188,83.134666 155.194061,83.870689 155.791931,84.589241 
	C156.835510,85.843460 158.291077,86.933876 158.843079,88.373253 
	C159.548691,90.213181 159.529922,92.330910 159.932968,95.031609 
	C160.774933,96.801254 161.616882,98.570900 162.458832,100.340546 
	C162.874481,100.168190 163.290115,99.995834 163.705750,99.823479 
	C163.185104,97.955284 162.664474,96.087082 162.144714,94.222099 
	C165.268829,92.755821 168.116653,91.419205 170.964478,90.082596 
	C170.731155,89.528152 170.497833,88.973717 170.264526,88.419273 
	C167.178543,89.607849 164.092575,90.796425 160.640411,91.300110 
	C162.247986,88.843391 163.904678,86.416649 165.433304,83.911751 
	C165.894669,83.155701 166.000656,82.182770 166.269424,81.309181 
	C165.273499,81.071503 164.276688,80.629677 163.281815,80.634018 
	C160.172577,80.647575 156.957779,83.259102 153.330185,79.828438 
	C150.155914,78.183174 149.863342,75.654739 152.154358,73.380096 
	C155.998322,69.563599 157.961960,73.405540 160.411194,76.047783 
	C160.605026,74.593582 160.519806,73.417236 159.993652,72.491531 
	C157.915146,68.834709 154.462418,69.570793 150.942032,69.295761 
	C151.061584,68.646576 151.181122,67.997391 151.881317,66.876511 
	C151.938065,66.318329 151.994797,65.760155 152.051544,65.201973 
	C151.454453,65.429237 150.857346,65.656494 150.112274,65.924248 
M165.777954,138.629578 
	C165.583511,139.650452 165.389069,140.671341 165.194626,141.692215 
	C165.583572,141.763947 165.972504,141.835678 166.361450,141.907410 
	C166.811600,140.917450 167.261749,139.927475 167.985168,138.276413 
	C170.195023,137.251343 170.607422,137.374634 170.375854,139.145721 
	C170.172485,140.701202 169.684631,142.219482 169.322433,143.754211 
	C169.832535,143.885086 170.342651,144.015976 170.852753,144.146851 
	C171.876648,141.578049 172.900558,139.009247 173.807846,136.733002 
	C171.812561,135.301865 170.252167,134.182663 168.783524,132.460037 
	C169.114655,131.970169 169.445786,131.480286 170.002640,130.406235 
	C169.981369,129.280472 169.960098,128.154709 169.596527,126.557571 
	C169.131866,127.349472 168.667191,128.141373 167.622467,129.048248 
	C166.872299,128.309982 166.122147,127.571709 165.641052,126.348106 
	C165.528488,126.038628 165.415924,125.729149 165.831345,124.723274 
	C163.366470,121.621223 163.677658,125.652687 163.719452,125.795532 
	C164.949265,130.000031 162.240829,133.123047 160.653946,136.979492 
	C160.585312,137.264694 160.565002,137.553284 160.155594,138.590408 
	C160.286850,139.411102 160.418121,140.231781 159.920242,141.308441 
	C159.778534,142.220459 159.193680,143.597260 159.574936,143.960800 
	C160.932312,145.255066 162.618454,146.204514 164.627838,147.594147 
	C160.619888,147.934341 157.350708,148.211853 153.786438,148.514389 
	C154.790421,150.573227 155.388214,151.799133 155.165787,153.085541 
	C151.749390,152.520737 148.983871,152.994461 148.389282,157.484283 
	C150.944260,154.476913 153.602036,153.965256 156.053207,156.869995 
	C159.247406,160.655243 155.389801,162.317444 152.282974,164.939545 
	C154.340317,164.765244 155.371933,164.940628 156.139435,164.569656 
	C160.687683,162.371063 160.574997,158.421432 156.496155,152.838394 
	C159.087036,153.828430 161.677917,154.818466 164.268799,155.808502 
	C164.446365,155.442169 164.623947,155.075851 164.801514,154.709518 
	C163.614410,153.740768 162.427307,152.772018 160.892410,151.519470 
	C163.922592,150.494995 166.500946,149.623276 169.609818,148.572205 
	C166.115265,145.691925 163.270798,143.347443 161.091537,140.729919 
	C162.215958,138.841003 163.340378,136.952087 165.185043,135.412262 
	C165.495041,136.276169 165.805038,137.140060 165.777954,138.629578 
M117.248291,55.868504 
	C117.356857,55.645008 117.327385,55.441559 117.465561,54.496883 
	C117.540070,53.089569 117.614571,51.682251 117.689079,50.274937 
	C117.369949,50.236561 117.050819,50.198189 116.731697,50.159813 
	C115.827080,51.539703 114.922462,52.919590 113.440369,54.113487 
	C112.952881,53.762001 112.465385,53.410515 111.796104,52.334457 
	C109.850220,49.574417 107.171242,49.162685 104.412750,50.588863 
	C101.766296,51.957123 100.346085,54.272381 101.007355,57.481712 
	C101.989563,62.248592 106.731140,63.573570 112.612198,60.751682 
	C113.410416,61.139362 114.208641,61.527046 115.634087,62.187618 
	C116.511963,62.431683 117.389839,62.675747 118.224625,63.345966 
	C118.441391,63.215183 118.658157,63.084404 119.673027,62.976192 
	C120.452553,62.891872 121.232071,62.807552 122.768486,62.668304 
	C125.162552,63.738358 127.607338,65.783951 129.939468,65.662712 
	C134.010941,65.451027 135.664627,61.679993 135.178421,58.235382 
	C134.904678,56.295895 132.373093,53.783009 130.362427,53.178246 
	C126.860382,52.124897 125.241882,55.126301 124.031693,58.043446 
	C123.551346,59.201332 122.696159,60.203712 121.242622,60.993069 
	C117.670769,61.246529 116.428627,59.492321 117.248291,55.868504 
M70.195053,164.995819 
	C69.875259,165.694031 69.193336,166.946136 69.289085,167.008743 
	C71.239624,168.283951 73.857994,170.825363 75.174049,170.282120 
	C77.532021,169.308792 80.010719,166.756378 80.808197,164.328339 
	C81.907402,160.981613 79.207870,158.961456 75.292068,157.817795 
	C74.203674,156.795242 73.115288,155.772705 71.935036,154.663849 
	C70.894730,155.412247 69.719429,156.257736 68.464394,157.160614 
	C67.225700,155.982285 66.160439,154.968918 65.069511,153.260468 
	C64.526184,151.293472 71.166702,150.824341 66.204956,147.118698 
	C58.699833,146.343338 63.013451,139.240860 60.488281,135.700928 
	C58.447128,136.217270 56.713718,136.655762 54.800533,136.778214 
	C54.800533,136.778214 54.437481,136.758484 54.043766,136.130432 
	C51.572800,136.647644 49.024078,137.096146 49.760078,140.846497 
	C52.921860,140.140778 55.801159,139.498108 58.680458,138.855453 
	C58.901722,139.229813 59.122990,139.604156 59.344254,139.978516 
	C57.208206,142.559769 55.072159,145.141006 52.453602,148.305328 
	C53.984215,148.784882 54.930912,149.339310 55.871220,149.328674 
	C58.928616,149.294098 61.983669,149.052795 64.946625,149.586655 
	C62.647079,151.740799 60.347534,153.894943 58.047985,156.049103 
	C58.336185,156.376007 58.624390,156.702911 58.912590,157.029816 
	C60.581516,156.406677 62.250446,155.783539 64.226875,155.808487 
	C68.615601,158.167282 63.701290,160.535950 63.931759,163.465012 
	C66.721115,161.791458 69.055328,160.390991 72.055580,158.590912 
	C71.570816,160.668381 71.321075,161.738647 71.020561,163.600403 
	C70.988724,164.128189 70.956886,164.655975 70.195053,164.995819 
M57.737183,101.030685 
	C58.712299,100.519394 59.687420,100.008110 60.646469,99.505241 
	C60.025249,98.016693 59.499107,96.755959 58.963730,95.473099 
	C60.206795,95.045586 61.139915,94.724678 62.073036,94.403763 
	C62.061508,94.064819 62.049980,93.725868 62.038456,93.386925 
	C58.224133,92.307388 54.409809,91.227859 50.595486,90.148323 
	C50.509445,90.564270 50.423405,90.980209 50.337364,91.396156 
	C52.183849,93.581467 54.030338,95.766769 55.179146,98.305786 
	C52.427578,99.016426 49.676006,99.727074 46.924438,100.437721 
	C46.956146,101.025238 46.987854,101.612755 47.019562,102.200272 
	C50.804405,103.439362 54.589249,104.678452 59.040096,106.135582 
	C58.053944,103.659546 57.549015,102.391777 57.737183,101.030685 
M90.736534,60.783070 
	C91.708397,62.232540 92.680260,63.682011 94.435593,66.299965 
	C94.435593,63.301323 94.435593,61.739811 94.435593,59.499630 
	C97.068626,60.973354 99.115471,62.118984 100.566635,62.931213 
	C100.311844,60.397007 100.542831,57.955715 99.714149,55.952847 
	C99.052254,54.353073 97.276291,52.577530 95.672340,52.179501 
	C93.997253,51.763817 91.936493,52.902321 90.057556,53.358185 
	C90.057556,55.907654 90.057556,58.101013 89.426674,59.967606 
	C88.966621,59.489098 88.513390,59.003796 88.045372,58.533203 
	C85.521988,55.995911 82.807060,55.809391 80.100502,58.124092 
	C77.477585,60.367256 77.429863,63.410992 79.496002,65.631546 
	C81.046684,67.298126 83.959915,68.954948 85.982162,68.660843 
	C90.095505,68.062630 90.446541,64.399651 90.736534,60.783070 
M169.833252,123.663841 
	C170.541611,123.824120 171.249985,123.984398 172.235382,124.783821 
	C173.233322,125.904228 174.231277,127.024635 175.479126,128.425613 
	C177.598495,122.727959 171.468903,122.447250 170.228348,119.285767 
	C172.693512,117.999039 174.906036,116.844177 177.118561,115.689316 
	C177.082443,115.208755 177.046326,114.728195 177.010208,114.247635 
	C172.910110,112.809570 168.809998,111.371498 163.907745,109.652084 
	C164.479858,111.289444 164.554321,111.795891 164.809341,112.183601 
	C166.203430,114.303230 169.809616,115.989067 165.287567,118.876717 
	C163.767120,119.847633 166.720200,123.638336 169.833252,123.663841 
M73.787804,75.387978 
	C76.958176,75.977425 79.704536,73.925880 80.825127,69.750114 
	C78.828026,71.114708 77.134949,72.271561 75.441879,73.428413 
	C74.979454,73.148300 74.517021,72.868195 74.054596,72.588081 
	C75.143303,70.734367 76.232018,68.880646 77.612740,66.529732 
	C75.477921,67.143616 73.816399,67.621399 72.154877,68.099190 
	C71.999207,67.807236 71.843529,67.515289 71.687859,67.223335 
	C72.778450,65.821365 73.869049,64.419395 74.959641,63.017429 
	C74.663338,62.702766 74.367035,62.388103 74.070732,62.073444 
	C71.855049,63.841286 69.639374,65.609131 67.254265,67.512154 
	C69.549644,70.306313 71.439651,72.607018 73.787804,75.387978 
M53.584629,85.466698 
	C56.765022,87.799446 59.945419,90.132195 63.497833,92.737808 
	C65.268883,89.338966 66.519539,86.938812 67.770203,84.538658 
	C67.396263,84.320877 67.022324,84.103096 66.648384,83.885323 
	C65.318756,85.607811 63.989132,87.330307 62.659500,89.052803 
	C62.143688,88.887726 61.627872,88.722641 61.112061,88.557564 
	C61.614601,86.431953 62.117138,84.306335 62.619678,82.180717 
	C62.373829,82.072426 62.127983,81.964127 61.882133,81.855835 
	C60.599190,83.326714 59.316242,84.797592 58.033298,86.268471 
	C57.611473,86.075333 57.189648,85.882195 56.767822,85.689056 
	C57.491264,83.550369 58.214706,81.411690 58.938148,79.273010 
	C58.603077,79.075729 58.268005,78.878441 57.932934,78.681152 
	C56.587933,80.744492 55.242931,82.807831 53.584629,85.466698 
M57.896877,126.606461 
	C54.825169,123.758553 53.272499,120.750023 57.246998,116.849312 
	C53.435986,118.018951 50.198814,119.430870 47.040836,121.001976 
	C46.454990,121.293427 45.694939,122.501892 45.867588,122.810822 
	C46.365562,123.701897 47.181435,124.759430 48.082882,125.018013 
	C51.088612,125.880180 54.186340,126.421631 57.896877,126.606461 
M147.012711,170.169144 
	C147.078629,169.125793 147.144547,168.082428 147.215988,166.951782 
	C149.206543,167.545288 150.802841,168.021240 152.399139,168.497192 
	C152.537735,168.172653 152.676315,167.848129 152.814896,167.523590 
	C149.382797,165.130432 145.950699,162.737259 141.835068,159.867462 
	C143.276733,164.554810 144.503082,168.542084 145.936600,173.202927 
	C146.526276,172.037949 146.799210,171.498718 147.012711,170.169144 
M61.204113,76.985153 
	C62.690403,77.092674 64.390907,76.780144 65.613937,77.403870 
	C67.561707,78.397171 69.191414,80.014168 70.955627,81.367393 
	C71.327751,80.912354 71.699867,80.457314 72.071991,80.002274 
	C69.718613,77.894142 67.365242,75.786011 64.996178,73.663826 
	C65.480583,72.415573 65.948120,71.210793 66.415649,70.006012 
	C65.882454,69.719261 65.349266,69.432510 64.816071,69.145760 
	C63.362495,71.876884 61.908924,74.608002 61.204113,76.985153 
M57.229897,131.834244 
	C57.838772,130.776581 58.447643,129.718918 59.056519,128.661255 
	C58.739235,128.338943 58.421955,128.016647 58.104671,127.694336 
	C54.358643,128.952911 50.612614,130.211487 46.866585,131.470078 
	C46.996185,131.971710 47.125790,132.473343 47.255390,132.974976 
	C50.338127,132.677994 53.420860,132.381012 57.229897,131.834244 
z"/>
<path fill="#094388" opacity="1.000000" stroke="none" 
	d="
M125.000099,23.007078 
	C119.656654,28.918545 114.394028,34.907166 108.893555,40.668713 
	C107.929985,41.678020 105.999435,42.014629 104.461906,42.188644 
	C71.716965,45.894699 46.261818,67.105377 38.990864,97.219246 
	C27.873919,143.261917 60.406639,186.138870 104.687767,189.104004 
	C104.982323,189.123718 105.267891,189.277725 106.219444,189.577530 
	C99.849503,195.763138 92.402000,197.075531 84.561211,195.740143 
	C45.894917,189.154816 16.477888,152.732819 17.606705,113.547989 
	C18.555977,80.595673 35.688599,57.079071 61.679550,39.471004 
	C72.259094,32.303684 84.717758,27.910086 97.010551,22.487926 
	C104.791084,22.527998 111.882515,22.334621 118.973938,22.141245 
	C120.379082,22.093397 121.784218,22.045551 123.718033,22.266109 
	C124.456398,22.758081 124.707535,22.915604 125.000099,23.007078 
z"/>
<path fill="#35AFEB" opacity="1.000000" stroke="none" 
	d="
M128.691208,206.161194 
	C118.745239,206.180893 109.263771,206.180893 98.286552,206.180893 
	C103.927597,200.129150 108.639565,194.932999 113.559944,189.942322 
	C114.329010,189.162277 116.034431,189.163666 117.327156,189.062271 
	C154.203201,186.169830 182.201904,157.400284 184.894699,121.296867 
	C187.932404,80.568985 160.251740,49.830898 124.577950,43.279419 
	C121.647667,42.741276 118.669464,42.464012 114.797569,41.942051 
	C122.818802,36.045284 130.886307,35.688862 139.462311,37.105331 
	C180.857254,43.942413 209.376556,83.911827 202.505112,125.401924 
	C195.799500,165.890717 171.517914,191.183502 133.996765,205.125824 
	C132.468323,205.693756 130.773178,205.813110 128.691208,206.161194 
z"/>
<path fill="#02307F" opacity="1.000000" stroke="none" 
	d="
M118.511871,22.069132 
	C111.882515,22.334621 104.791084,22.527998 97.376114,22.470604 
	C104.051636,22.145563 111.050720,22.071291 118.511871,22.069132 
z"/>
<path fill="#02307F" opacity="1.000000" stroke="none" 
	d="
M125.228638,22.893105 
	C124.707535,22.915604 124.456398,22.758081 124.134285,22.340431 
	C124.500305,22.357273 124.978745,22.568201 125.228638,22.893105 
z"/>
<path fill="#FCFCFD" opacity="1.000000" stroke="none" 
	d="
M73.168922,143.036453 
	C72.955582,143.645187 72.742241,144.253922 72.499672,144.946030 
	C61.053131,132.757309 58.470482,110.849457 67.106773,94.344452 
	C76.665085,76.077347 91.950554,66.275085 112.790176,66.981697 
	C133.643387,67.688766 148.461014,78.459961 156.357971,97.472458 
	C164.081909,116.068367 160.287155,133.389496 147.138107,148.530182 
	C145.406540,150.524033 142.624969,151.605972 140.239059,153.169662 
	C140.249939,153.133301 140.022675,153.892258 139.098511,154.564209 
	C137.625671,154.509521 136.849731,154.541824 136.046844,154.154129 
	C135.993652,153.454819 135.967392,153.175476 135.824982,152.578735 
	C135.123108,152.499954 134.537369,152.738571 133.976212,152.986237 
	C134.000809,152.995285 133.997238,152.943222 133.680161,152.787445 
	C132.243332,153.432281 131.123566,154.232910 129.695221,155.118561 
	C128.230545,155.717270 127.074448,156.230957 125.504738,156.696686 
	C124.296661,157.115891 123.502205,157.583054 122.629143,157.926056 
	C122.423767,157.631226 122.254089,157.544449 122.239197,157.118393 
	C121.618370,156.445541 120.799843,156.195862 119.988586,155.975266 
	C119.995842,156.004333 120.049759,155.978180 120.114273,155.616180 
	C117.709457,153.981186 115.240120,152.708206 112.770782,151.435226 
	C112.579636,151.819183 112.388489,152.203125 112.197350,152.587082 
	C112.788849,152.801849 113.380356,153.016617 113.972565,153.457001 
	C113.973259,153.682617 113.965744,154.133850 113.616318,154.113098 
	C112.176102,154.295227 111.085320,154.498093 109.758987,154.758377 
	C109.523445,154.815796 109.042221,154.875320 109.008171,154.579285 
	C108.516029,153.697922 108.057938,153.112564 107.599846,152.527206 
	C107.405464,152.932159 107.211082,153.337097 106.719803,153.801697 
	C105.583923,154.364136 104.744934,154.866943 103.503632,155.550278 
	C101.073997,155.903610 99.046677,156.076416 96.660362,156.088257 
	C95.554298,156.033325 94.807236,156.139343 94.026138,155.944092 
	C93.504929,155.078659 93.017738,154.514526 92.281830,153.590271 
	C91.347481,153.487732 90.661850,153.745331 89.598015,153.996368 
	C88.722633,154.072952 88.225449,154.156082 87.341934,154.234985 
	C85.945358,154.418060 84.935127,154.605331 83.966209,154.428024 
	C83.708321,153.298706 83.409126,152.533966 83.109924,151.769226 
	C82.394173,152.464294 81.678429,153.159348 80.962677,153.854416 
	C79.078247,151.909378 77.193810,149.964325 76.054871,147.970505 
	C79.842422,147.921722 82.884476,147.921722 86.592789,147.921722 
	C85.971626,145.580154 85.492584,143.774353 84.985229,141.651428 
	C84.918686,141.125534 84.880463,140.916763 84.818138,140.450729 
	C84.542824,139.791595 84.291603,139.389694 84.085487,138.605774 
	C83.711304,136.492432 83.292015,134.761108 82.879700,132.647278 
	C82.136589,129.871567 81.386497,127.478386 80.636414,125.085197 
	C80.411758,125.123123 80.187103,125.161057 79.962448,125.198982 
	C79.962448,127.080963 79.962448,128.962936 79.685020,130.827972 
	C78.967972,130.481979 78.528343,130.152954 78.092148,129.468811 
	C78.061859,128.557861 78.028152,128.002029 77.994438,127.446205 
	C77.762444,127.433205 77.530441,127.420197 77.298439,127.407188 
	C77.032341,128.562134 76.766243,129.717087 76.292526,131.150208 
	C75.474152,133.959381 74.863403,136.490387 74.125237,139.366318 
	C73.943810,140.440887 73.889801,141.170502 73.835800,141.900131 
	C73.835800,141.900131 73.819954,141.797379 73.563309,141.939850 
	C73.099548,142.377090 73.053635,142.695129 73.168922,143.036453 
M117.026787,79.005714 
	C117.026787,79.005714 117.070122,78.973999 117.100662,78.212402 
	C114.834961,74.643059 111.175385,73.462631 108.142914,75.799957 
	C105.838768,77.575905 104.230873,81.221382 103.861549,84.225380 
	C103.582939,86.491562 105.221771,89.658882 109.439247,89.105339 
	C109.439247,89.105339 109.856499,89.126328 109.811287,89.828156 
	C108.327393,91.575630 106.843506,93.323105 104.976807,95.521378 
	C118.948364,95.521378 132.369324,95.521378 146.697006,95.521378 
	C143.311249,92.200958 145.345612,86.137558 139.232437,85.594604 
	C138.974335,85.571678 138.800262,84.440735 138.612015,83.818420 
	C136.946594,78.312996 134.729797,77.338676 129.549255,79.841980 
	C124.689667,74.750938 123.459145,74.678734 117.839668,79.011200 
	C117.569031,78.991875 117.298386,78.972542 117.026787,79.005714 
z"/>
<path fill="#DEE3EB" opacity="1.000000" stroke="none" 
	d="
M169.114395,123.537979 
	C166.720200,123.638336 163.767120,119.847633 165.287567,118.876717 
	C169.809616,115.989067 166.203430,114.303230 164.809341,112.183601 
	C164.554321,111.795891 164.479858,111.289444 163.907745,109.652084 
	C168.809998,111.371498 172.910110,112.809570 177.010208,114.247635 
	C177.046326,114.728195 177.082443,115.208755 177.118561,115.689316 
	C174.906036,116.844177 172.693512,117.999039 170.228348,119.285767 
	C171.468903,122.447250 177.598495,122.727959 175.479126,128.425613 
	C174.231277,127.024635 173.233322,125.904228 171.970505,124.203964 
	C170.841888,123.595390 169.978134,123.566681 169.114395,123.537979 
z"/>
<path fill="#E9ECF1" opacity="1.000000" stroke="none" 
	d="
M54.980309,137.094254 
	C56.713718,136.655762 58.447128,136.217270 60.488281,135.700928 
	C63.013451,139.240860 58.699833,146.343338 65.941185,147.603729 
	C65.464813,148.356186 65.252220,148.623627 65.039627,148.891068 
	C61.983669,149.052795 58.928616,149.294098 55.871220,149.328674 
	C54.930912,149.339310 53.984215,148.784882 52.453602,148.305328 
	C55.072159,145.141006 57.208206,142.559769 59.344254,139.978516 
	C59.122990,139.604156 58.901722,139.229813 58.680458,138.855453 
	C55.801159,139.498108 52.921860,140.140778 49.760078,140.846497 
	C49.024078,137.096146 51.572800,136.647644 54.016396,136.547546 
	C53.942432,137.219635 53.895847,137.474609 53.849262,137.729584 
	C54.226276,137.517807 54.603294,137.306030 54.980309,137.094254 
z"/>
<path fill="#DEE2EA" opacity="1.000000" stroke="none" 
	d="
M90.057556,60.294373 
	C90.057556,58.101013 90.057556,55.907654 90.057556,53.358185 
	C91.936493,52.902321 93.997253,51.763817 95.672340,52.179501 
	C97.276291,52.577530 99.052254,54.353073 99.714149,55.952847 
	C100.542831,57.955715 100.311844,60.397007 100.566635,62.931213 
	C99.115471,62.118984 97.068626,60.973354 94.435593,59.499630 
	C94.435593,61.739811 94.435593,63.301323 94.435593,66.299965 
	C92.680260,63.682011 91.708397,62.232540 90.360336,60.670673 
	C89.984138,60.558277 90.057556,60.294373 90.057556,60.294373 
z"/>
<path fill="#E9EDF2" opacity="1.000000" stroke="none" 
	d="
M119.965218,163.857483 
	C116.490242,164.569305 112.973274,165.976547 109.553741,165.770065 
	C106.880676,165.608658 104.328506,163.445145 101.370087,161.836182 
	C101.017563,161.501114 101.064781,161.135773 101.290726,161.079193 
	C101.516670,161.022614 101.957283,160.871399 102.279800,160.894287 
	C103.404076,160.614685 104.205833,160.312180 105.169739,160.192352 
	C105.731323,160.601532 106.130768,160.828049 106.838806,161.012741 
	C107.778900,160.458557 108.410393,159.946182 109.434853,159.302856 
	C111.200836,159.133331 112.573868,159.094757 114.172096,159.255585 
	C115.268394,159.946976 116.139496,160.438934 117.245178,161.112610 
	C118.306747,161.806061 119.133720,162.317810 119.967033,163.086502 
	C119.970650,163.514801 119.967934,163.686127 119.965218,163.857483 
M105.582115,162.472534 
	C105.582115,162.472534 105.473427,162.543594 105.582115,162.472534 
z"/>
<path fill="#E4E8EE" opacity="1.000000" stroke="none" 
	d="
M155.986023,153.025040 
	C155.388214,151.799133 154.790421,150.573227 153.786438,148.514389 
	C157.350708,148.211853 160.619888,147.934341 164.627838,147.594147 
	C162.618454,146.204514 160.932312,145.255066 159.574936,143.960800 
	C159.193680,143.597260 159.778534,142.220459 160.207535,141.159409 
	C160.494827,141.010376 160.426331,141.002975 160.426331,141.002975 
	C163.270798,143.347443 166.115265,145.691925 169.609818,148.572205 
	C166.500946,149.623276 163.922592,150.494995 160.892410,151.519470 
	C162.427307,152.772018 163.614410,153.740768 164.801514,154.709518 
	C164.623947,155.075851 164.446365,155.442169 164.268799,155.808502 
	C161.677917,154.818466 159.087036,153.828430 156.214539,152.910583 
	C155.932938,152.982788 155.986023,153.025040 155.986023,153.025040 
z"/>
<path fill="#DEE3EB" opacity="1.000000" stroke="none" 
	d="
M160.758942,140.866455 
	C160.426331,141.002975 160.494827,141.010376 160.522110,141.031433 
	C160.418121,140.231781 160.286850,139.411102 160.486023,138.032104 
	C160.913605,137.188385 160.934174,136.897507 160.878128,136.601181 
	C162.240829,133.123047 164.949265,130.000031 163.719452,125.795532 
	C163.677658,125.652687 163.366470,121.621223 165.499146,125.307701 
	C165.129852,126.228882 165.198196,126.542648 165.371979,126.833443 
	C166.122147,127.571709 166.872299,128.309982 168.121277,128.836929 
	C169.059677,128.093399 169.499252,127.561172 169.938843,127.028946 
	C169.960098,128.154709 169.981369,129.280472 169.554199,130.703384 
	C168.174683,131.668381 167.243576,132.336243 166.312485,133.004089 
	C167.105576,133.023895 167.898682,133.043686 168.691772,133.063477 
	C170.252167,134.182663 171.812561,135.301865 173.807846,136.733002 
	C172.900558,139.009247 171.876648,141.578049 170.852753,144.146851 
	C170.342651,144.015976 169.832535,143.885086 169.322433,143.754211 
	C169.684631,142.219482 170.172485,140.701202 170.375854,139.145721 
	C170.607422,137.374634 170.195023,137.251343 167.670959,138.349457 
	C167.220444,138.264679 167.084152,138.106873 166.957977,137.567719 
	C166.133667,136.478638 165.299240,135.770905 164.464813,135.063171 
	C163.340378,136.952087 162.215958,138.841003 160.758942,140.866455 
z"/>
<path fill="#DBE0E8" opacity="1.000000" stroke="none" 
	d="
M159.823334,94.328918 
	C159.529922,92.330910 159.548691,90.213181 158.843079,88.373253 
	C158.291077,86.933876 156.835510,85.843460 155.791931,84.589241 
	C155.194061,83.870689 154.617188,83.134666 154.016724,81.741547 
	C153.985474,80.781075 153.980743,80.485382 153.988419,80.189484 
	C156.957779,83.259102 160.172577,80.647575 163.281815,80.634018 
	C164.276688,80.629677 165.273499,81.071503 166.269424,81.309181 
	C166.000656,82.182770 165.894669,83.155701 165.433304,83.911751 
	C163.904678,86.416649 162.247986,88.843391 160.689819,91.942871 
	C160.433914,93.166733 160.128632,93.747826 159.823334,94.328918 
z"/>
<path fill="#E3E7ED" opacity="1.000000" stroke="none" 
	d="
M153.659302,80.008957 
	C153.980743,80.485382 153.985474,80.781075 154.047836,81.291183 
	C149.854416,81.751480 148.726990,78.916115 148.061615,74.844460 
	C146.721344,74.104485 145.485062,74.040291 144.248764,73.976097 
	C144.132980,73.820969 144.017197,73.665848 144.281754,73.110214 
	C145.086395,72.081787 145.510727,71.453857 145.935043,70.825928 
	C147.062729,69.417786 148.190430,68.009644 149.629272,66.834183 
	C150.347107,68.021408 150.753784,68.975945 151.160461,69.930481 
	C154.462418,69.570793 157.915146,68.834709 159.993652,72.491531 
	C160.519806,73.417236 160.605026,74.593582 160.411194,76.047783 
	C157.961960,73.405540 155.998322,69.563599 152.154358,73.380096 
	C149.863342,75.654739 150.155914,78.183174 153.659302,80.008957 
z"/>
<path fill="#E8EBF0" opacity="1.000000" stroke="none" 
	d="
M122.011627,61.276894 
	C122.696159,60.203712 123.551346,59.201332 124.031693,58.043446 
	C125.241882,55.126301 126.860382,52.124897 130.362427,53.178246 
	C132.373093,53.783009 134.904678,56.295895 135.178421,58.235382 
	C135.664627,61.679993 134.010941,65.451027 129.939468,65.662712 
	C127.607338,65.783951 125.162552,63.738358 122.393463,62.454723 
	C122.020386,61.919697 122.018112,61.598278 122.011627,61.276894 
M129.498871,63.223442 
	C130.680740,61.356823 132.058228,59.571293 132.891769,57.560299 
	C133.074921,57.118408 130.936569,54.985020 130.534500,55.160378 
	C129.062668,55.802311 126.978577,56.958649 126.800980,58.167488 
	C126.575539,59.701958 127.983269,61.476368 129.498871,63.223442 
z"/>
<path fill="#DEE3EB" opacity="1.000000" stroke="none" 
	d="
M73.558731,75.147842 
	C71.439651,72.607018 69.549644,70.306313 67.254265,67.512154 
	C69.639374,65.609131 71.855049,63.841286 74.070732,62.073444 
	C74.367035,62.388103 74.663338,62.702766 74.959641,63.017429 
	C73.869049,64.419395 72.778450,65.821365 71.687859,67.223335 
	C71.843529,67.515289 71.999207,67.807236 72.154877,68.099190 
	C73.816399,67.621399 75.477921,67.143616 77.612740,66.529732 
	C76.232018,68.880646 75.143303,70.734367 74.054596,72.588081 
	C74.517021,72.868195 74.979454,73.148300 75.441879,73.428413 
	C77.134949,72.271561 78.828026,71.114708 80.825127,69.750114 
	C79.704536,73.925880 76.958176,75.977425 73.558731,75.147842 
z"/>
<path fill="#E4E8EE" opacity="1.000000" stroke="none" 
	d="
M89.742111,60.130989 
	C90.057556,60.294373 89.984138,60.558277 89.968170,60.694176 
	C90.446541,64.399651 90.095505,68.062630 85.982162,68.660843 
	C83.959915,68.954948 81.046684,67.298126 79.496002,65.631546 
	C77.429863,63.410992 77.477585,60.367256 80.100502,58.124092 
	C82.807060,55.809391 85.521988,55.995911 88.045372,58.533203 
	C88.513390,59.003796 88.966621,59.489098 89.742111,60.130989 
M83.054474,66.400146 
	C84.590469,65.937431 86.126465,65.474724 87.662460,65.012016 
	C87.061256,63.217346 86.779541,61.185860 85.707794,59.739979 
	C85.254097,59.127903 82.220856,59.325054 81.962029,59.889271 
	C81.323143,61.281998 81.549934,63.100304 81.568550,64.745956 
	C81.573158,65.152733 82.111023,65.553467 83.054474,66.400146 
z"/>
<path fill="#E1E5EC" opacity="1.000000" stroke="none" 
	d="
M111.966415,60.515118 
	C106.731140,63.573570 101.989563,62.248592 101.007355,57.481712 
	C100.346085,54.272381 101.766296,51.957123 104.412750,50.588863 
	C107.171242,49.162685 109.850220,49.574417 111.888077,53.115898 
	C111.975510,56.103264 111.970963,58.309193 111.966415,60.515118 
M109.612877,53.196926 
	C108.035728,53.136833 105.308228,52.594593 105.093994,53.105743 
	C104.411575,54.733929 104.341118,56.821640 104.711906,58.589718 
	C104.863220,59.311230 107.582710,60.280228 107.720650,60.093372 
	C108.766632,58.676544 109.512459,57.022945 110.227852,55.388874 
	C110.388870,55.021084 110.062012,54.439705 109.612877,53.196926 
z"/>
<path fill="#E4E8EE" opacity="1.000000" stroke="none" 
	d="
M53.741280,85.168930 
	C55.242931,82.807831 56.587933,80.744492 57.932934,78.681152 
	C58.268005,78.878441 58.603077,79.075729 58.938148,79.273010 
	C58.214706,81.411690 57.491264,83.550369 56.767822,85.689056 
	C57.189648,85.882195 57.611473,86.075333 58.033298,86.268471 
	C59.316242,84.797592 60.599190,83.326714 61.882133,81.855835 
	C62.127983,81.964127 62.373829,82.072426 62.619678,82.180717 
	C62.117138,84.306335 61.614601,86.431953 61.112061,88.557564 
	C61.627872,88.722641 62.143688,88.887726 62.659500,89.052803 
	C63.989132,87.330307 65.318756,85.607811 66.648384,83.885323 
	C67.022324,84.103096 67.396263,84.320877 67.770203,84.538658 
	C66.519539,86.938812 65.268883,89.338966 63.497833,92.737808 
	C59.945419,90.132195 56.765022,87.799446 53.741280,85.168930 
z"/>
<path fill="#5E72A3" opacity="1.000000" stroke="none" 
	d="
M85.013550,141.968552 
	C85.492584,143.774353 85.971626,145.580154 86.592789,147.921722 
	C82.884476,147.921722 79.842422,147.921722 76.348984,147.799911 
	C75.877617,146.043961 75.857628,144.409821 76.077560,142.284882 
	C76.571404,141.497543 76.825325,141.200989 77.380089,141.084030 
	C78.687065,141.363480 79.693207,141.463348 80.699341,141.563217 
	C80.464905,140.720139 80.230476,139.877045 80.092041,138.570648 
	C80.498749,137.569687 80.809456,137.032028 81.118790,136.643051 
	C81.117409,136.791718 80.999367,137.060577 80.971954,137.033051 
	C80.944534,137.005524 80.986206,136.939941 80.950531,137.234268 
	C81.650429,138.003510 82.386009,138.478439 83.351761,138.949219 
	C83.581932,138.945084 84.040382,138.987808 84.040382,138.987808 
	C84.291603,139.389694 84.542824,139.791595 84.512871,140.495255 
	C83.945969,141.043884 83.660240,141.290741 83.374512,141.537598 
	C83.920860,141.681244 84.467201,141.824905 85.013550,141.968552 
z"/>
<path fill="#E2E6ED" opacity="1.000000" stroke="none" 
	d="
M145.882080,66.281143 
	C145.206482,67.656517 144.530899,69.031898 143.956085,70.731171 
	C144.056854,71.055069 144.090347,70.999855 144.090347,70.999855 
	C140.528900,71.739037 137.025909,71.068665 136.094803,67.418617 
	C135.543976,65.259293 136.665543,62.010735 138.156006,60.149727 
	C140.351608,57.408268 143.427002,58.106659 146.105362,61.091187 
	C145.280457,61.561375 144.271133,61.004757 143.411301,61.180309 
	C141.798584,61.509579 139.649841,61.837276 138.884277,62.958111 
	C138.110703,64.090698 138.487595,66.251076 138.900269,67.819145 
	C139.042450,68.359428 140.809418,68.472107 141.834167,68.780113 
	C141.725037,67.341949 141.615921,65.903778 141.478973,64.098839 
	C143.056458,64.880692 144.469269,65.580917 145.882080,66.281143 
z"/>
<path fill="#DCE1E9" opacity="1.000000" stroke="none" 
	d="
M57.572845,126.846222 
	C54.186340,126.421631 51.088612,125.880180 48.082882,125.018013 
	C47.181435,124.759430 46.365562,123.701897 45.867588,122.810822 
	C45.694939,122.501892 46.454990,121.293427 47.040836,121.001976 
	C50.198814,119.430870 53.435986,118.018951 57.246998,116.849312 
	C53.272499,120.750023 54.825169,123.758553 57.572845,126.846222 
z"/>
<path fill="#E1E5EC" opacity="1.000000" stroke="none" 
	d="
M71.071335,162.808899 
	C71.321075,161.738647 71.570816,160.668381 72.055580,158.590912 
	C69.055328,160.390991 66.721115,161.791458 63.931759,163.465012 
	C63.701290,160.535950 68.615601,158.167282 64.202179,155.224426 
	C64.483391,154.412094 64.789284,154.183838 65.095177,153.955566 
	C66.160439,154.968918 67.225700,155.982285 68.464394,157.160614 
	C69.719429,156.257736 70.894730,155.412247 71.935036,154.663849 
	C73.115288,155.772705 74.203674,156.795242 75.528557,158.196014 
	C75.508232,159.042038 75.251427,159.509842 74.784653,160.262238 
	C74.712234,161.907761 74.849800,163.268707 75.032524,165.076401 
	C73.480293,164.187866 72.275818,163.498383 71.071335,162.808899 
z"/>
<path fill="#F0F2F6" opacity="1.000000" stroke="none" 
	d="
M55.876823,97.952080 
	C54.030338,95.766769 52.183849,93.581467 50.337364,91.396156 
	C50.423405,90.980209 50.509445,90.564270 50.595486,90.148323 
	C54.409809,91.227859 58.224133,92.307388 62.038456,93.386925 
	C62.049980,93.725868 62.061508,94.064819 62.073036,94.403763 
	C61.139915,94.724678 60.206795,95.045586 58.963730,95.473099 
	C59.499107,96.755959 60.025249,98.016693 60.646469,99.505241 
	C59.687420,100.008110 58.712299,100.519394 57.374191,100.716408 
	C56.633072,99.585449 56.254948,98.768761 55.876823,97.952080 
z"/>
<path fill="#EBEEF2" opacity="1.000000" stroke="none" 
	d="
M55.527985,98.128937 
	C56.254948,98.768761 56.633072,99.585449 57.027641,100.763069 
	C57.549015,102.391777 58.053944,103.659546 59.040096,106.135582 
	C54.589249,104.678452 50.804405,103.439362 47.019562,102.200272 
	C46.987854,101.612755 46.956146,101.025238 46.924438,100.437721 
	C49.676006,99.727074 52.427578,99.016426 55.527985,98.128937 
z"/>
<path fill="#E3E7ED" opacity="1.000000" stroke="none" 
	d="
M74.994614,159.977646 
	C75.251427,159.509842 75.508232,159.042038 75.876221,158.330872 
	C79.207870,158.961456 81.907402,160.981613 80.808197,164.328339 
	C80.010719,166.756378 77.532021,169.308792 75.174049,170.282120 
	C73.857994,170.825363 71.239624,168.283951 69.289085,167.008743 
	C69.193336,166.946136 69.875259,165.694031 70.606056,165.461578 
	C72.630295,166.592026 74.472412,168.066132 75.792168,167.692932 
	C77.102745,167.322342 78.840729,164.946564 78.651726,163.717728 
	C78.436218,162.316666 76.297501,161.211441 74.994614,159.977646 
z"/>
<path fill="#E1E5EC" opacity="1.000000" stroke="none" 
	d="
M155.908585,152.959167 
	C160.574997,158.421432 160.687683,162.371063 156.139435,164.569656 
	C155.371933,164.940628 154.340317,164.765244 152.282974,164.939545 
	C155.389801,162.317444 159.247406,160.655243 156.053207,156.869995 
	C153.602036,153.965256 150.944260,154.476913 148.389282,157.484283 
	C148.983871,152.994461 151.749390,152.520737 155.575897,153.055298 
	C155.986023,153.025040 155.932938,152.982788 155.908585,152.959167 
z"/>
<path fill="#1A408C" opacity="1.000000" stroke="none" 
	d="
M146.052094,65.985168 
	C144.469269,65.580917 143.056458,64.880692 141.478973,64.098839 
	C141.615921,65.903778 141.725037,67.341949 141.834167,68.780113 
	C140.809418,68.472107 139.042450,68.359428 138.900269,67.819145 
	C138.487595,66.251076 138.110703,64.090698 138.884277,62.958111 
	C139.649841,61.837276 141.798584,61.509579 143.411301,61.180309 
	C144.271133,61.004757 145.280457,61.561375 146.279343,61.400330 
	C151.197220,62.691544 147.899933,64.170570 146.052094,65.985168 
z"/>
<path fill="#DCE1E9" opacity="1.000000" stroke="none" 
	d="
M147.042419,170.564316 
	C146.799210,171.498718 146.526276,172.037949 145.936600,173.202927 
	C144.503082,168.542084 143.276733,164.554810 141.835068,159.867462 
	C145.950699,162.737259 149.382797,165.130432 152.814896,167.523590 
	C152.676315,167.848129 152.537735,168.172653 152.399139,168.497192 
	C150.802841,168.021240 149.206543,167.545288 147.215988,166.951782 
	C147.144547,168.082428 147.078629,169.125793 147.042419,170.564316 
z"/>
<path fill="#E2E6ED" opacity="1.000000" stroke="none" 
	d="
M60.829731,77.162140 
	C61.908924,74.608002 63.362495,71.876884 64.816071,69.145760 
	C65.349266,69.432510 65.882454,69.719261 66.415649,70.006012 
	C65.948120,71.210793 65.480583,72.415573 64.996178,73.663826 
	C67.365242,75.786011 69.718613,77.894142 72.071991,80.002274 
	C71.699867,80.457314 71.327751,80.912354 70.955627,81.367393 
	C69.191414,80.014168 67.561707,78.397171 65.613937,77.403870 
	C64.390907,76.780144 62.690403,77.092674 60.829731,77.162140 
z"/>
<path fill="#21458E" opacity="1.000000" stroke="none" 
	d="
M74.784645,160.262238 
	C76.297501,161.211441 78.436218,162.316666 78.651726,163.717728 
	C78.840729,164.946564 77.102745,167.322342 75.792168,167.692932 
	C74.472412,168.066132 72.630295,166.592026 70.971054,165.555557 
	C70.956886,164.655975 70.988724,164.128189 71.045952,163.204651 
	C72.275818,163.498383 73.480293,164.187866 75.032524,165.076401 
	C74.849800,163.268707 74.712234,161.907761 74.784645,160.262238 
z"/>
<path fill="#DEE3EB" opacity="1.000000" stroke="none" 
	d="
M159.878159,94.680267 
	C160.128632,93.747826 160.433914,93.166733 160.872910,92.285324 
	C164.092575,90.796425 167.178543,89.607849 170.264526,88.419273 
	C170.497833,88.973717 170.731155,89.528152 170.964478,90.082596 
	C168.116653,91.419205 165.268829,92.755821 162.144714,94.222099 
	C162.664474,96.087082 163.185104,97.955284 163.705750,99.823479 
	C163.290115,99.995834 162.874481,100.168190 162.458832,100.340546 
	C161.616882,98.570900 160.774933,96.801254 159.878159,94.680267 
z"/>
<path fill="#E1E5EC" opacity="1.000000" stroke="none" 
	d="
M121.627121,61.134979 
	C122.018112,61.598278 122.020386,61.919697 122.015022,62.482185 
	C121.232071,62.807552 120.452553,62.891872 119.122375,62.954330 
	C118.571716,62.932472 118.267715,62.919811 118.267715,62.919811 
	C117.389839,62.675747 116.511963,62.431683 115.318146,61.658379 
	C114.674080,58.852585 114.345970,56.576031 114.017853,54.299480 
	C114.922462,52.919590 115.827080,51.539703 116.731697,50.159813 
	C117.050819,50.198189 117.369949,50.236561 117.689079,50.274937 
	C117.614571,51.682251 117.540070,53.089569 117.260933,55.017120 
	C117.007309,55.734692 117.005913,55.932365 117.052116,56.130379 
	C116.428627,59.492321 117.670769,61.246529 121.627121,61.134979 
z"/>
<path fill="#DBE0E8" opacity="1.000000" stroke="none" 
	d="
M56.866745,131.959137 
	C53.420860,132.381012 50.338127,132.677994 47.255390,132.974976 
	C47.125790,132.473343 46.996185,131.971710 46.866585,131.470078 
	C50.612614,130.211487 54.358643,128.952911 58.104671,127.694336 
	C58.421955,128.016647 58.739235,128.338943 59.056519,128.661255 
	C58.447643,129.718918 57.838772,130.776581 56.866745,131.959137 
z"/>
<path fill="#D7DDE6" opacity="1.000000" stroke="none" 
	d="
M65.082344,153.608017 
	C64.789284,154.183838 64.483391,154.412094 64.048431,154.900391 
	C62.250446,155.783539 60.581516,156.406677 58.912590,157.029816 
	C58.624390,156.702911 58.336185,156.376007 58.047985,156.049103 
	C60.347534,153.894943 62.647079,151.740799 64.993118,149.238861 
	C65.252220,148.623627 65.464813,148.356186 65.929062,148.009903 
	C71.166702,150.824341 64.526184,151.293472 65.082344,153.608017 
z"/>
<path fill="#EBEEF2" opacity="1.000000" stroke="none" 
	d="
M96.962158,160.050873 
	C96.857834,159.796951 96.684395,159.605728 95.995071,159.244675 
	C95.053047,158.627991 94.557800,158.243805 94.065247,157.577255 
	C94.072723,157.106659 94.077499,156.918427 94.378296,156.833893 
	C95.458778,157.200287 96.243233,157.462982 97.416161,157.835602 
	C99.862885,157.603531 101.921143,157.261566 104.231476,156.908783 
	C104.648827,156.866531 104.814079,156.835083 104.966171,157.050156 
	C104.952995,157.296692 104.952637,157.790466 104.706978,157.980057 
	C103.636147,158.752625 102.810982,159.335602 101.567261,159.930267 
	C99.753197,159.978271 98.357674,160.014572 96.962158,160.050873 
z"/>
<path fill="#D7DDE6" opacity="1.000000" stroke="none" 
	d="
M113.729111,54.206482 
	C114.345970,56.576031 114.674080,58.852585 115.004532,61.521935 
	C114.208641,61.527046 113.410416,61.139362 112.289307,60.633400 
	C111.970963,58.309193 111.975510,56.103264 111.978973,53.478184 
	C112.465385,53.410515 112.952881,53.762001 113.729111,54.206482 
z"/>
<path fill="#E8EBF0" opacity="1.000000" stroke="none" 
	d="
M122.041512,157.541580 
	C122.254089,157.544449 122.423767,157.631226 123.041801,157.912659 
	C124.352211,157.988922 125.171371,157.954376 126.370354,157.930222 
	C127.476463,157.726974 128.202744,157.513321 128.929962,157.674469 
	C128.927933,158.299133 128.924973,158.548981 128.924835,158.866638 
	C128.927673,158.934433 129.016205,159.037292 128.745499,159.078735 
	C128.270370,159.394073 128.065933,159.667969 127.861511,159.941879 
	C127.861511,159.941879 127.437172,159.944580 126.855331,159.967621 
	C124.509148,159.725266 122.744797,159.459854 120.779205,158.990494 
	C119.978447,158.318527 119.378929,157.850494 118.859085,157.101791 
	C118.969742,156.629074 119.000732,156.437027 119.306221,156.254578 
	C119.737076,156.168808 119.893417,156.073486 120.049759,155.978180 
	C120.049759,155.978180 119.995842,156.004333 120.060486,156.323441 
	C120.763924,156.942230 121.402718,157.241898 122.041512,157.541580 
z"/>
<path fill="#487EB4" opacity="1.000000" stroke="none" 
	d="
M94.062546,157.859634 
	C94.557800,158.243805 95.053047,158.627991 95.804031,159.197540 
	C95.817299,159.737183 95.574844,160.091461 94.978172,160.524811 
	C94.623955,160.603912 94.503052,160.745880 94.503052,160.745880 
	C92.160126,159.954361 89.817192,159.162857 87.618530,158.015686 
	C88.173569,157.704636 88.584328,157.749268 89.266541,157.933624 
	C90.173981,158.393723 90.809967,158.714127 92.275475,159.452438 
	C91.435486,158.160797 91.127975,157.687958 90.987747,157.016495 
	C91.266693,156.685593 91.378342,156.553299 91.731682,156.592804 
	C92.669762,157.129608 93.366158,157.494629 94.062546,157.859634 
z"/>
<path fill="#487EB4" opacity="1.000000" stroke="none" 
	d="
M83.924896,154.792603 
	C84.935127,154.605331 85.945358,154.418060 87.585236,154.432922 
	C89.306587,155.230377 90.398285,155.825684 91.489990,156.421005 
	C91.378342,156.553299 91.266693,156.685593 90.706253,156.943298 
	C89.893211,156.934967 89.528961,156.801208 88.888535,156.456085 
	C87.235100,156.217239 85.857834,156.189728 84.480560,156.162216 
	C83.789070,155.967468 83.097588,155.772720 82.455276,155.365555 
	C82.977943,155.032974 83.451416,154.912796 83.924896,154.792603 
z"/>
<path fill="#3A75B0" opacity="1.000000" stroke="none" 
	d="
M130.003815,155.033539 
	C131.123566,154.232910 132.243332,153.432281 133.673492,153.125641 
	C133.243423,154.143433 132.502930,154.667252 131.762436,155.191071 
	C131.927414,155.464661 132.092392,155.738266 132.257355,156.011871 
	C132.812164,155.932449 133.366959,155.853027 133.953094,156.009583 
	C133.984421,156.245544 134.043686,156.717896 133.773636,156.934753 
	C132.836716,157.784943 132.169846,158.418259 131.502975,159.051590 
	C131.260391,159.277847 130.976974,159.356140 130.331665,159.144836 
	C130.010635,159.003235 129.821976,158.768585 130.034683,158.506073 
	C130.618988,157.731918 130.990601,157.220291 131.362213,156.708649 
	C130.936615,156.590149 130.511047,156.471634 130.061584,156.023438 
	C130.026398,155.473679 130.015106,155.253616 130.003815,155.033539 
z"/>
<path fill="#3174AF" opacity="1.000000" stroke="none" 
	d="
M134.043686,156.717896 
	C134.043686,156.717896 133.984421,156.245544 134.080978,155.785278 
	C134.809616,155.074722 135.441696,154.824417 136.073776,154.574127 
	C136.849731,154.541824 137.625671,154.509521 138.756866,154.636444 
	C138.762497,155.519257 138.412888,156.242859 137.452209,156.640289 
	C135.891769,156.556259 134.942413,156.798416 134.038269,156.965012 
	C134.083466,156.889450 134.043686,156.717896 134.043686,156.717896 
z"/>
<path fill="#1569A8" opacity="1.000000" stroke="none" 
	d="
M120.980453,159.194427 
	C122.744797,159.459854 124.509148,159.725266 126.663025,160.057251 
	C125.223267,161.370834 123.393990,162.617844 121.279953,163.513489 
	C120.976730,162.148285 120.958267,161.134476 120.965897,159.889679 
	C120.991982,159.658691 120.980453,159.194427 120.980453,159.194427 
z"/>
<path fill="#21458E" opacity="1.000000" stroke="none" 
	d="
M77.079247,140.904449 
	C76.825325,141.200989 76.571404,141.497543 76.026993,141.877533 
	C75.315033,141.959290 74.893555,141.957611 74.153938,141.928024 
	C73.889801,141.170502 73.943810,140.440887 74.323532,139.378418 
	C74.649254,139.045593 75.046356,139.061066 75.046356,139.061066 
	C75.046356,139.061066 75.442802,139.033447 75.847603,139.090027 
	C76.521675,139.104782 76.790939,139.062958 77.347336,139.037949 
	C77.826111,139.061600 78.017738,139.068436 78.105942,139.334808 
	C77.694771,140.031036 77.387009,140.467743 77.079247,140.904449 
z"/>
<path fill="#CDD8E3" opacity="1.000000" stroke="none" 
	d="
M84.525436,156.438019 
	C85.857834,156.189728 87.235100,156.217239 88.836288,156.736740 
	C89.038490,157.417145 89.016785,157.605530 88.995087,157.793915 
	C88.584328,157.749268 88.173569,157.704636 87.454651,157.695770 
	C86.287766,157.392288 85.429039,157.053055 84.525436,156.438019 
z"/>
<path fill="#CDD8E3" opacity="1.000000" stroke="none" 
	d="
M83.966209,154.428040 
	C83.451416,154.912796 82.977943,155.032974 82.277206,155.051331 
	C81.857872,154.651062 81.665787,154.352615 81.218193,153.954285 
	C81.678429,153.159348 82.394173,152.464294 83.109924,151.769226 
	C83.409126,152.533966 83.708321,153.298706 83.966209,154.428040 
z"/>
<path fill="#D9DEE8" opacity="1.000000" stroke="none" 
	d="
M168.737640,132.761749 
	C167.898682,133.043686 167.105576,133.023895 166.312485,133.004089 
	C167.243576,132.336243 168.174683,131.668381 169.441345,130.995483 
	C169.445786,131.480286 169.114655,131.970169 168.737640,132.761749 
z"/>
<path fill="#DEE3EB" opacity="1.000000" stroke="none" 
	d="
M167.534332,138.680008 
	C167.261749,139.927475 166.811600,140.917450 166.361450,141.907410 
	C165.972504,141.835678 165.583572,141.763947 165.194626,141.692215 
	C165.389069,140.671341 165.583511,139.650452 166.154938,138.306625 
	C166.531906,137.983673 166.947845,137.949051 166.947845,137.949051 
	C167.084152,138.106873 167.220444,138.264679 167.534332,138.680008 
z"/>
<path fill="#D7DDE6" opacity="1.000000" stroke="none" 
	d="
M144.468933,74.231827 
	C145.485062,74.040291 146.721344,74.104485 148.014862,74.468185 
	C146.944412,74.674316 145.816742,74.580940 144.468933,74.231827 
z"/>
<path fill="#C8CEDC" opacity="1.000000" stroke="none" 
	d="
M120.939812,160.120636 
	C120.958267,161.134476 120.976730,162.148285 120.921097,163.533783 
	C120.846992,163.905457 120.404152,163.917831 120.184685,163.887650 
	C119.967934,163.686127 119.970650,163.514801 119.936340,162.665619 
	C119.464561,160.983398 119.029816,159.979004 118.936874,159.258591 
	C119.832390,159.735260 120.386101,159.927948 120.939812,160.120636 
z"/>
<path fill="#0862A6" opacity="1.000000" stroke="none" 
	d="
M97.095016,160.285233 
	C98.357674,160.014572 99.753197,159.978271 101.565262,160.168625 
	C101.981804,160.395294 101.957283,160.871399 101.957283,160.871399 
	C101.957283,160.871399 101.516670,161.022614 100.927910,161.011017 
	C99.601830,161.030121 98.864502,161.060837 98.127182,161.091537 
	C97.827415,160.900894 97.527649,160.710236 97.095016,160.285233 
z"/>
<path fill="#D9DEE8" opacity="1.000000" stroke="none" 
	d="
M169.767685,126.793259 
	C169.499252,127.561172 169.059677,128.093399 168.411316,128.779449 
	C168.667191,128.141373 169.131866,127.349472 169.767685,126.793259 
z"/>
<path fill="#D9DEE8" opacity="1.000000" stroke="none" 
	d="
M166.957977,137.567719 
	C166.947845,137.949051 166.531906,137.983673 166.323471,137.993805 
	C165.805038,137.140060 165.495041,136.276169 164.824921,135.237717 
	C165.299240,135.770905 166.133667,136.478638 166.957977,137.567719 
z"/>
<path fill="#D7DDE6" opacity="1.000000" stroke="none" 
	d="
M151.051239,69.613113 
	C150.753784,68.975945 150.347107,68.021408 149.961151,66.617523 
	C149.981873,66.168167 150.112274,65.924248 150.409546,66.296280 
	C150.904755,66.894951 151.102722,67.121582 151.300674,67.348206 
	C151.181122,67.997391 151.061584,68.646576 151.051239,69.613113 
z"/>
<path fill="#D7DDE6" opacity="1.000000" stroke="none" 
	d="
M145.617798,70.900703 
	C145.510727,71.453857 145.086395,72.081787 144.404816,72.847229 
	C144.121017,72.543205 144.094482,72.101677 144.079163,71.330002 
	C144.090347,70.999855 144.056854,71.055069 144.030838,71.074135 
	C144.436737,71.053955 144.868652,71.014717 145.617798,70.900703 
z"/>
<path fill="#A3B7CE" opacity="1.000000" stroke="none" 
	d="
M131.842270,159.224060 
	C132.169846,158.418259 132.836716,157.784943 133.773636,156.934753 
	C134.043686,156.717896 134.083466,156.889450 134.046875,157.278183 
	C134.037018,157.874084 134.063751,158.081238 134.090469,158.288391 
	C133.454163,158.657761 132.817856,159.027130 131.842270,159.224060 
z"/>
<path fill="#C8CEDC" opacity="1.000000" stroke="none" 
	d="
M134.455154,158.215027 
	C134.063751,158.081238 134.037018,157.874084 134.001678,157.353745 
	C134.942413,156.798416 135.891769,156.556259 137.195251,156.667511 
	C136.639526,157.394501 135.729691,157.768082 134.455154,158.215027 
z"/>
<path fill="#D9DEE8" opacity="1.000000" stroke="none" 
	d="
M169.473816,123.600906 
	C169.978134,123.566681 170.841888,123.595390 171.831985,123.884384 
	C171.249985,123.984398 170.541611,123.824120 169.473816,123.600906 
z"/>
<path fill="#A3B7CE" opacity="1.000000" stroke="none" 
	d="
M98.260628,161.402893 
	C98.864502,161.060837 99.601830,161.030121 100.701965,161.067596 
	C101.064781,161.135773 101.017563,161.501114 101.039780,161.683929 
	C100.172684,161.815903 99.283379,161.765076 98.260628,161.402893 
z"/>
<path fill="#E3E7ED" opacity="1.000000" stroke="none" 
	d="
M150.483521,66.276031 
	C150.857346,65.656494 151.454453,65.429237 152.051544,65.201973 
	C151.994797,65.760155 151.938065,66.318329 151.591003,67.112358 
	C151.102722,67.121582 150.904755,66.894951 150.483521,66.276031 
z"/>
<path fill="#E2E6ED" opacity="1.000000" stroke="none" 
	d="
M54.890423,136.936234 
	C54.603294,137.306030 54.226276,137.517807 53.849262,137.729584 
	C53.895847,137.474609 53.942432,137.219635 54.213249,136.861572 
	C54.437481,136.758484 54.800533,136.778214 54.890423,136.936234 
z"/>
<path fill="#0862A6" opacity="1.000000" stroke="none" 
	d="
M94.552460,160.774353 
	C94.503052,160.745880 94.623955,160.603912 94.669075,160.621765 
	C94.714195,160.639603 94.601875,160.802841 94.552460,160.774353 
z"/>
<path fill="#D7DDE6" opacity="1.000000" stroke="none" 
	d="
M117.150208,55.999443 
	C117.005913,55.932365 117.007309,55.734692 117.108093,55.397751 
	C117.327385,55.441559 117.356857,55.645008 117.150208,55.999443 
z"/>
<path fill="#3A75B0" opacity="1.000000" stroke="none" 
	d="
M130.106171,159.119568 
	C129.976486,159.477539 129.721390,159.681778 129.221786,159.694611 
	C129.010208,159.372818 129.013199,159.205063 129.016205,159.037292 
	C129.016205,159.037292 128.927673,158.934433 129.150101,158.867493 
	C129.372528,158.800537 129.821976,158.768585 129.821976,158.768585 
	C129.821976,158.768585 130.010635,159.003235 130.106171,159.119568 
z"/>
<path fill="#3174AF" opacity="1.000000" stroke="none" 
	d="
M128.745499,159.078735 
	C129.013199,159.205063 129.010208,159.372818 128.996582,159.792999 
	C128.797363,160.046356 128.608749,160.047272 128.140808,159.995041 
	C128.065933,159.667969 128.270370,159.394073 128.745499,159.078735 
z"/>
<path fill="#D7DDE6" opacity="1.000000" stroke="none" 
	d="
M118.246170,63.132889 
	C118.267715,62.919811 118.571716,62.932472 118.723320,62.943047 
	C118.658157,63.084404 118.441391,63.215183 118.246170,63.132889 
z"/>
<path fill="#D9DEE8" opacity="1.000000" stroke="none" 
	d="
M165.506516,126.590775 
	C165.198196,126.542648 165.129852,126.228882 165.235168,125.655899 
	C165.415924,125.729149 165.528488,126.038628 165.506516,126.590775 
z"/>
<path fill="#5E72A3" opacity="1.000000" stroke="none" 
	d="
M73.378975,142.892120 
	C73.053635,142.695129 73.099548,142.377090 73.511360,141.941498 
	C73.673714,142.116394 73.631371,142.432083 73.378975,142.892120 
z"/>
<path fill="#D9DEE8" opacity="1.000000" stroke="none" 
	d="
M160.766037,136.790344 
	C160.934174,136.897507 160.913605,137.188385 160.704727,137.659515 
	C160.565002,137.553284 160.585312,137.264694 160.766037,136.790344 
z"/>
<path fill="#3A75B0" opacity="1.000000" stroke="none" 
	d="
M118.633751,79.201492 
	C123.459145,74.678734 124.689667,74.750938 129.549255,79.841980 
	C134.729797,77.338676 136.946594,78.312996 138.612015,83.818420 
	C138.800262,84.440735 138.974335,85.571678 139.232437,85.594604 
	C145.345612,86.137558 143.311249,92.200958 146.697006,95.521378 
	C132.369324,95.521378 118.948364,95.521378 104.976807,95.521378 
	C106.843506,93.323105 108.327393,91.575630 110.201172,89.402168 
	C112.856697,86.449188 115.122337,83.922188 117.604942,81.164841 
	C118.092529,80.356827 118.363136,79.779160 118.633751,79.201492 
z"/>
<path fill="#F2D646" opacity="1.000000" stroke="none" 
	d="
M109.030190,89.020409 
	C105.221771,89.658882 103.582939,86.491562 103.861549,84.225380 
	C104.230873,81.221382 105.838768,77.575905 108.142914,75.799957 
	C111.175385,73.462631 114.834961,74.643059 116.715927,78.721382 
	C115.555031,79.160179 114.778870,79.090004 113.803345,78.746109 
	C108.715225,79.002785 106.506241,82.335350 108.056213,87.267159 
	C108.449898,88.030891 108.740044,88.525650 109.030190,89.020409 
z"/>
<path fill="#F4EFBD" opacity="1.000000" stroke="none" 
	d="
M109.234718,89.062874 
	C108.740044,88.525650 108.449898,88.030891 108.366165,87.129044 
	C110.382614,84.154572 112.192657,81.587196 114.002701,79.019821 
	C114.778870,79.090004 115.555031,79.160179 116.700661,79.102180 
	C117.070122,78.973999 117.026787,79.005714 116.926605,79.395493 
	C117.013611,80.321915 117.200790,80.858559 117.387970,81.395195 
	C115.122337,83.922188 112.856697,86.449188 110.223785,89.051254 
	C109.856499,89.126328 109.439247,89.105339 109.234718,89.062874 
z"/>
<path fill="#314E91" opacity="1.000000" stroke="none" 
	d="
M78.209358,139.075287 
	C78.017738,139.068436 77.826111,139.061600 77.488098,138.742554 
	C77.242928,137.974518 77.144142,137.518661 77.045357,137.062805 
	C76.511169,137.719681 75.976990,138.376572 75.442802,139.033447 
	C75.442802,139.033447 75.046356,139.061066 75.046356,139.061066 
	C75.046356,139.061066 74.649254,139.045593 74.450958,139.033478 
	C74.863403,136.490387 75.474152,133.959381 76.421120,131.109100 
	C76.757339,130.789810 76.979012,130.937531 76.999596,131.285843 
	C77.344498,132.420044 77.668816,133.205917 78.056404,134.042084 
	C78.119675,134.092361 78.192329,134.236740 78.149414,134.621460 
	C78.838142,135.326889 79.569786,135.647598 80.547890,136.034821 
	C80.902969,136.232346 81.011574,136.363358 81.120171,136.494385 
	C80.809456,137.032028 80.498749,137.569687 79.795555,138.516525 
	C79.005165,138.975586 78.607262,139.025436 78.209358,139.075287 
z"/>
<path fill="#4A629B" opacity="1.000000" stroke="none" 
	d="
M79.962448,130.844910 
	C79.962448,128.962936 79.962448,127.080963 79.962448,125.198982 
	C80.187103,125.161057 80.411758,125.123123 80.636414,125.085197 
	C81.386497,127.478386 82.136589,129.871567 82.507858,132.664474 
	C81.385803,133.096420 80.642570,133.128647 79.937561,132.774048 
	C79.971336,131.873093 79.966896,131.359009 79.962448,130.844910 
z"/>
<path fill="#CDD8E3" opacity="1.000000" stroke="none" 
	d="
M91.731682,156.592804 
	C90.398285,155.825684 89.306587,155.230377 87.971573,154.437134 
	C88.225449,154.156082 88.722633,154.072952 90.037025,154.068573 
	C91.413010,154.081680 91.971779,154.016037 92.530548,153.950409 
	C93.017738,154.514526 93.504929,155.078659 94.056793,156.063904 
	C94.121468,156.485016 94.082268,156.730209 94.082268,156.730209 
	C94.077499,156.918427 94.072723,157.106659 94.065247,157.577255 
	C93.366158,157.494629 92.669762,157.129608 91.731682,156.592804 
z"/>
<path fill="#1A408C" opacity="1.000000" stroke="none" 
	d="
M79.899338,133.160889 
	C80.642570,133.128647 81.385803,133.096420 82.500885,133.046997 
	C83.292015,134.761108 83.711304,136.492432 84.085487,138.605774 
	C84.040382,138.987808 83.581932,138.945084 83.239777,138.604706 
	C82.260483,137.822876 81.623344,137.381409 80.986206,136.939941 
	C80.986206,136.939941 80.944534,137.005524 80.584496,136.924774 
	C80.209061,136.575516 80.193665,136.306992 80.448059,135.830719 
	C80.431030,134.823349 80.144218,134.023712 79.867859,133.207611 
	C79.878304,133.191132 79.899338,133.160889 79.899338,133.160889 
z"/>
<path fill="#3174AF" opacity="1.000000" stroke="none" 
	d="
M120.114273,155.616180 
	C119.893417,156.073486 119.737076,156.168808 119.103271,156.115570 
	C118.625809,155.966980 118.149353,155.844482 118.012512,155.593109 
	C117.237015,154.947937 116.598358,154.554108 115.735718,153.986877 
	C114.998451,153.619415 114.485161,153.425400 113.971863,153.231384 
	C113.380356,153.016617 112.788849,152.801849 112.197350,152.587082 
	C112.388489,152.203125 112.579636,151.819183 112.770782,151.435226 
	C115.240120,152.708206 117.709457,153.981186 120.114273,155.616180 
z"/>
<path fill="#3A75B0" opacity="1.000000" stroke="none" 
	d="
M103.979393,156.919586 
	C101.921143,157.261566 99.862885,157.603531 97.413132,157.589706 
	C97.020294,156.905685 97.019539,156.577454 97.019356,156.249207 
	C99.046677,156.076416 101.073997,155.903610 103.528229,155.937714 
	C103.963219,156.402924 103.971306,156.661255 103.979393,156.919586 
z"/>
<path fill="#CDD8E3" opacity="1.000000" stroke="none" 
	d="
M104.952637,157.790466 
	C104.952637,157.790466 104.952995,157.296692 105.119781,156.770065 
	C105.863281,155.409637 106.439995,154.575851 107.016701,153.742050 
	C107.211082,153.337097 107.405464,152.932159 107.599846,152.527206 
	C108.057938,153.112564 108.516029,153.697922 108.732193,154.771820 
	C107.780640,155.807404 107.071030,156.354431 106.352211,156.916779 
	C106.343002,156.932098 106.278999,156.960495 105.967941,157.200806 
	C105.422127,157.557556 105.187386,157.674011 104.952637,157.790466 
z"/>
<path fill="#487EB4" opacity="1.000000" stroke="none" 
	d="
M129.695221,155.118561 
	C130.015106,155.253616 130.026398,155.473679 129.959839,156.184799 
	C129.564316,156.883789 129.246658,157.091721 128.929016,157.299667 
	C128.202744,157.513321 127.476463,157.726974 126.362015,157.635834 
	C125.955345,157.135574 125.936852,156.940109 125.918350,156.744629 
	C127.074448,156.230957 128.230545,155.717270 129.695221,155.118561 
z"/>
<path fill="#5B8BBA" opacity="1.000000" stroke="none" 
	d="
M106.361420,156.901474 
	C107.071030,156.354431 107.780640,155.807404 108.766235,155.067841 
	C109.042221,154.875320 109.523445,154.815796 109.753677,154.863571 
	C109.983902,154.911346 110.004631,155.120972 109.986679,155.357635 
	C109.968727,155.594284 110.011482,156.068100 109.928299,156.377899 
	C109.945686,157.083939 110.046257,157.480179 109.926247,157.998993 
	C109.548698,158.182098 109.391731,158.242630 109.140976,158.264801 
	C109.047188,158.226471 108.860870,158.151886 108.421463,157.976288 
	C107.441849,157.500961 106.901634,157.201218 106.361420,156.901474 
z"/>
<path fill="#E8EBF0" opacity="1.000000" stroke="none" 
	d="
M136.046844,154.154144 
	C135.441696,154.824417 134.809616,155.074722 134.049652,155.549316 
	C133.366959,155.853027 132.812164,155.932449 132.257355,156.011871 
	C132.092392,155.738266 131.927414,155.464661 131.762436,155.191071 
	C132.502930,154.667252 133.243423,154.143433 133.990570,153.281433 
	C133.997238,152.943222 134.000809,152.995285 134.297028,153.123016 
	C135.042526,153.132523 135.491821,153.014328 135.941116,152.896118 
	C135.967392,153.175476 135.993652,153.454819 136.046844,154.154144 
z"/>
<path fill="#1A408C" opacity="1.000000" stroke="none" 
	d="
M79.685020,130.827972 
	C79.966896,131.359009 79.971336,131.873093 79.937561,132.774048 
	C79.899338,133.160889 79.878304,133.191132 79.637810,133.297470 
	C78.995659,133.681458 78.593994,133.959106 78.192329,134.236740 
	C78.192329,134.236740 78.119675,134.092361 78.135223,133.656525 
	C78.098778,132.484268 78.046783,131.747849 78.008972,130.713837 
	C78.045013,130.218796 78.066864,130.021362 78.088722,129.823914 
	C78.528343,130.152954 78.967972,130.481979 79.685020,130.827972 
z"/>
<path fill="#5B8BBA" opacity="1.000000" stroke="none" 
	d="
M106.719803,153.801697 
	C106.439995,154.575851 105.863281,155.409637 105.132950,156.523529 
	C104.814079,156.835083 104.648827,156.866531 104.231476,156.908783 
	C103.971306,156.661255 103.963219,156.402924 103.930542,155.757172 
	C104.744934,154.866943 105.583923,154.364136 106.719803,153.801697 
z"/>
<path fill="#02307F" opacity="1.000000" stroke="none" 
	d="
M78.092148,129.468811 
	C78.066864,130.021362 78.045013,130.218796 77.752831,130.725708 
	C77.314674,131.002640 77.146843,130.970078 76.979012,130.937531 
	C76.979012,130.937531 76.757339,130.789810 76.628738,130.830933 
	C76.766243,129.717087 77.032341,128.562134 77.298439,127.407188 
	C77.530441,127.420197 77.762444,127.433205 77.994438,127.446205 
	C78.028152,128.002029 78.061859,128.557861 78.092148,129.468811 
z"/>
<path fill="#487EB4" opacity="1.000000" stroke="none" 
	d="
M96.660362,156.088257 
	C97.019539,156.577454 97.020294,156.905685 97.024658,157.479797 
	C96.243233,157.462982 95.458778,157.200287 94.378296,156.833893 
	C94.082268,156.730209 94.121468,156.485016 94.090820,156.365204 
	C94.807236,156.139343 95.554298,156.033325 96.660362,156.088257 
z"/>
<path fill="#A3B7CE" opacity="1.000000" stroke="none" 
	d="
M109.989220,154.806152 
	C111.085320,154.498093 112.176102,154.295227 113.617882,154.310715 
	C113.968880,154.529083 114.054161,154.918488 113.648987,154.951874 
	C112.164078,155.030487 111.084358,155.075729 110.004631,155.120972 
	C110.004631,155.120972 109.983902,154.911346 109.989220,154.806152 
z"/>
<path fill="#3174AF" opacity="1.000000" stroke="none" 
	d="
M125.504730,156.696671 
	C125.936852,156.940109 125.955345,157.135574 125.982185,157.625443 
	C125.171371,157.954376 124.352211,157.988922 123.120399,158.036835 
	C123.502205,157.583054 124.296661,157.115891 125.504730,156.696671 
z"/>
<path fill="#EBEEF2" opacity="1.000000" stroke="none" 
	d="
M114.054161,154.918488 
	C114.054161,154.918488 113.968880,154.529083 113.967316,154.331467 
	C113.965744,154.133850 113.973259,153.682617 113.972565,153.457001 
	C114.485161,153.425400 114.998451,153.619415 115.736038,154.298477 
	C115.963501,154.991333 115.966660,155.199158 115.652176,155.277435 
	C114.884850,155.105530 114.435173,155.063202 114.013321,155.002426 
	C114.041145,154.983978 114.054161,154.918488 114.054161,154.918488 
z"/>
<path fill="#F2D646" opacity="1.000000" stroke="none" 
	d="
M117.604942,81.164841 
	C117.200790,80.858559 117.013611,80.321915 116.927086,79.369247 
	C117.298386,78.972542 117.569031,78.991875 118.236710,79.106346 
	C118.363136,79.779160 118.092529,80.356827 117.604942,81.164841 
z"/>
<path fill="#3174AF" opacity="1.000000" stroke="none" 
	d="
M122.239197,157.118393 
	C121.402718,157.241898 120.763924,156.942230 120.053223,156.294373 
	C120.799843,156.195862 121.618370,156.445541 122.239197,157.118393 
z"/>
<path fill="#E4E8EE" opacity="1.000000" stroke="none" 
	d="
M84.985229,141.651428 
	C84.467201,141.824905 83.920860,141.681244 83.374512,141.537598 
	C83.660240,141.290741 83.945969,141.043884 84.536964,140.752502 
	C84.880463,140.916763 84.918686,141.125534 84.985229,141.651428 
z"/>
<path fill="#5B8BBA" opacity="1.000000" stroke="none" 
	d="
M92.281830,153.590271 
	C91.971779,154.016037 91.413010,154.081680 90.415230,154.075134 
	C90.661850,153.745331 91.347481,153.487732 92.281830,153.590271 
z"/>
<path fill="#3A75B0" opacity="1.000000" stroke="none" 
	d="
M135.824982,152.578735 
	C135.491821,153.014328 135.042526,153.132523 134.272430,153.113953 
	C134.537369,152.738571 135.123108,152.499954 135.824982,152.578735 
z"/>
<path fill="#487EB4" opacity="1.000000" stroke="none" 
	d="
M118.595070,158.974609 
	C119.029816,159.979004 119.464561,160.983398 119.930008,162.408661 
	C119.133720,162.317810 118.306747,161.806061 117.226227,160.842804 
	C116.653053,159.771484 116.333420,159.151672 116.333862,158.560577 
	C116.800285,158.432816 116.946632,158.276352 117.241119,158.082703 
	C117.389259,158.045502 117.703506,158.023544 117.703506,158.023544 
	C117.703506,158.023544 118.018501,158.027084 118.061340,158.162842 
	C118.224831,158.552567 118.388458,158.777908 118.595070,158.974609 
z"/>
<path fill="#487EB4" opacity="1.000000" stroke="none" 
	d="
M104.706978,157.980057 
	C105.187386,157.674011 105.422127,157.557556 105.935257,157.628708 
	C105.811630,158.547440 105.409615,159.278564 105.007599,160.009674 
	C104.205833,160.312180 103.404076,160.614685 102.279800,160.894287 
	C101.957283,160.871399 101.981804,160.395294 101.983810,160.156952 
	C102.810982,159.335602 103.636147,158.752625 104.706978,157.980057 
z"/>
<path fill="#1569A8" opacity="1.000000" stroke="none" 
	d="
M109.234772,158.303146 
	C109.391731,158.242630 109.548698,158.182098 110.320312,157.896637 
	C112.272598,157.829788 113.610245,157.987854 114.841431,158.353302 
	C114.495087,158.762115 114.232391,158.927277 113.946892,159.056168 
	C112.573868,159.094757 111.200836,159.133331 109.473541,159.017990 
	C109.157768,158.677094 109.196266,158.490112 109.234772,158.303146 
z"/>
<path fill="#A3B7CE" opacity="1.000000" stroke="none" 
	d="
M105.169739,160.192352 
	C105.409615,159.278564 105.811630,158.547440 106.246323,157.388397 
	C106.278999,156.960495 106.343002,156.932098 106.352211,156.916779 
	C106.901634,157.201218 107.441849,157.500961 108.091095,158.194580 
	C107.643494,159.410507 107.086853,160.232529 106.530212,161.054565 
	C106.130768,160.828049 105.731323,160.601532 105.169739,160.192352 
z"/>
<path fill="#5B8BBA" opacity="1.000000" stroke="none" 
	d="
M114.172096,159.255585 
	C114.232391,158.927277 114.495087,158.762115 115.131363,158.384918 
	C115.689758,158.316742 115.851776,158.424301 116.013794,158.531845 
	C116.333420,159.151672 116.653053,159.771484 116.991638,160.661102 
	C116.139496,160.438934 115.268394,159.946976 114.172096,159.255585 
z"/>
<path fill="#487EB4" opacity="1.000000" stroke="none" 
	d="
M106.838806,161.012741 
	C107.086853,160.232529 107.643494,159.410507 108.530502,158.370178 
	C108.860870,158.151886 109.047188,158.226471 109.140976,158.264801 
	C109.196266,158.490112 109.157768,158.677094 109.080582,159.148941 
	C108.410393,159.946182 107.778900,160.458557 106.838806,161.012741 
z"/>
<path fill="#A3B7CE" opacity="1.000000" stroke="none" 
	d="
M105.527771,162.508057 
	C105.473427,162.543594 105.582115,162.472534 105.527771,162.508057 
z"/>
<path fill="#294A90" opacity="1.000000" stroke="none" 
	d="
M129.092834,63.185379 
	C127.983269,61.476368 126.575539,59.701958 126.800980,58.167488 
	C126.978577,56.958649 129.062668,55.802311 130.534500,55.160378 
	C130.936569,54.985020 133.074921,57.118408 132.891769,57.560299 
	C132.058228,59.571293 130.680740,61.356823 129.092834,63.185379 
z"/>
<path fill="#26478F" opacity="1.000000" stroke="none" 
	d="
M82.729118,66.178558 
	C82.111023,65.553467 81.573158,65.152733 81.568550,64.745956 
	C81.549934,63.100304 81.323143,61.281998 81.962029,59.889271 
	C82.220856,59.325054 85.254097,59.127903 85.707794,59.739979 
	C86.779541,61.185860 87.061256,63.217346 87.662460,65.012016 
	C86.126465,65.474724 84.590469,65.937431 82.729118,66.178558 
z"/>
<path fill="#26478F" opacity="1.000000" stroke="none" 
	d="
M109.786308,53.576790 
	C110.062012,54.439705 110.388870,55.021084 110.227852,55.388874 
	C109.512459,57.022945 108.766632,58.676544 107.720650,60.093372 
	C107.582710,60.280228 104.863220,59.311230 104.711906,58.589718 
	C104.341118,56.821640 104.411575,54.733929 105.093994,53.105743 
	C105.308228,52.594593 108.035728,53.136833 109.786308,53.576790 
z"/>
<path fill="#E4E8EE" opacity="1.000000" stroke="none" 
	d="
M78.105942,139.334808 
	C78.607262,139.025436 79.005165,138.975586 79.699554,138.979843 
	C80.230476,139.877045 80.464905,140.720139 80.699341,141.563217 
	C79.693207,141.463348 78.687065,141.363480 77.380089,141.084030 
	C77.387009,140.467743 77.694771,140.031036 78.105942,139.334808 
z"/>
<path fill="#FCFCFD" opacity="1.000000" stroke="none" 
	d="
M80.950531,137.234268 
	C81.623344,137.381409 82.260483,137.822876 83.009613,138.608856 
	C82.386009,138.478439 81.650429,138.003510 80.950531,137.234268 
z"/>
<path fill="#FCFCFD" opacity="1.000000" stroke="none" 
	d="
M80.178261,136.038467 
	C80.193665,136.306992 80.209061,136.575516 80.611908,136.952301 
	C80.999367,137.060577 81.117409,136.791718 81.118790,136.643051 
	C81.011574,136.363358 80.902969,136.232346 80.516113,136.050629 
	C80.237869,135.999939 80.178261,136.038467 80.178261,136.038467 
z"/>
<path fill="#3174AF" opacity="1.000000" stroke="none" 
	d="
M118.936874,159.258591 
	C118.388458,158.777908 118.224831,158.552567 118.049278,157.945404 
	C117.994377,157.592224 117.989433,157.157425 118.183846,157.224503 
	C118.378258,157.291580 118.779411,157.382477 118.779411,157.382477 
	C119.378929,157.850494 119.978447,158.318527 120.779205,158.990494 
	C120.980453,159.194427 120.991982,159.658691 120.965897,159.889664 
	C120.386101,159.927948 119.832390,159.735260 118.936874,159.258591 
z"/>
<path fill="#CDD8E3" opacity="1.000000" stroke="none" 
	d="
M128.929962,157.674469 
	C129.246658,157.091721 129.564316,156.883789 129.983719,156.514481 
	C130.511047,156.471634 130.936615,156.590149 131.362213,156.708649 
	C130.990601,157.220291 130.618988,157.731918 130.034683,158.506073 
	C129.821976,158.768585 129.372528,158.800537 129.147278,158.799683 
	C128.924973,158.548981 128.927933,158.299133 128.929962,157.674469 
z"/>
<path fill="#CDD8E3" opacity="1.000000" stroke="none" 
	d="
M118.859085,157.101791 
	C118.779411,157.382477 118.378258,157.291580 118.090637,157.030884 
	C117.803024,156.770203 117.590065,156.396942 117.730324,156.259277 
	C117.870583,156.121597 118.149353,155.844482 118.149353,155.844482 
	C118.149353,155.844482 118.625809,155.966980 118.828766,156.105988 
	C119.000732,156.437027 118.969742,156.629074 118.859085,157.101791 
z"/>
<path fill="#C8CEDC" opacity="1.000000" stroke="none" 
	d="
M89.266541,157.933624 
	C89.016785,157.605530 89.038490,157.417145 89.112457,156.948090 
	C89.528961,156.801208 89.893211,156.934967 90.538971,157.141907 
	C91.127975,157.687958 91.435486,158.160797 92.275475,159.452438 
	C90.809967,158.714127 90.173981,158.393723 89.266541,157.933624 
z"/>
<path fill="#F0F2F6" opacity="1.000000" stroke="none" 
	d="
M75.847603,139.090027 
	C75.976990,138.376572 76.511169,137.719681 77.045357,137.062805 
	C77.144142,137.518661 77.242928,137.974518 77.200958,138.725769 
	C76.790939,139.062958 76.521675,139.104782 75.847603,139.090027 
z"/>
<path fill="#F8E87E" opacity="1.000000" stroke="none" 
	d="
M113.803345,78.746109 
	C112.192657,81.587196 110.382614,84.154572 108.262619,86.860062 
	C106.506241,82.335350 108.715225,79.002785 113.803345,78.746109 
z"/>
<path fill="#C8CEDC" opacity="1.000000" stroke="none" 
	d="
M80.448059,135.830719 
	C80.178261,136.038467 80.237869,135.999939 80.269646,135.984131 
	C79.569786,135.647598 78.838142,135.326889 78.149414,134.621460 
	C78.593994,133.959106 78.995659,133.681458 79.627365,133.313934 
	C80.144218,134.023712 80.431030,134.823349 80.448059,135.830719 
z"/>
<path fill="#A3B7CE" opacity="1.000000" stroke="none" 
	d="
M76.999596,131.285843 
	C77.146843,130.970078 77.314674,131.002640 77.738647,131.023315 
	C78.046783,131.747849 78.098778,132.484268 78.071960,133.606232 
	C77.668816,133.205917 77.344498,132.420044 76.999596,131.285843 
z"/>
<path fill="#CDD8E3" opacity="1.000000" stroke="none" 
	d="
M115.969826,155.406998 
	C115.966660,155.199158 115.963501,154.991333 115.960022,154.471893 
	C116.598358,154.554108 117.237015,154.947937 118.012512,155.593109 
	C118.149353,155.844482 117.870583,156.121597 117.519981,156.144562 
	C116.769531,155.914032 116.369675,155.660507 115.969826,155.406998 
z"/>
<path fill="#F0F2F6" opacity="1.000000" stroke="none" 
	d="
M116.333862,158.560577 
	C115.851776,158.424301 115.689758,158.316742 115.237816,158.177551 
	C113.610245,157.987854 112.272598,157.829788 110.540894,157.774078 
	C110.046257,157.480179 109.945686,157.083939 110.325684,156.361954 
	C111.866219,156.063156 112.926170,156.090088 114.232712,156.390778 
	C115.350525,157.149673 116.221748,157.634781 117.092972,158.119888 
	C116.946632,158.276352 116.800285,158.432816 116.333862,158.560577 
z"/>
<path fill="#1569A8" opacity="1.000000" stroke="none" 
	d="
M113.986130,156.117020 
	C112.926170,156.090088 111.866219,156.063156 110.408875,156.052155 
	C110.011482,156.068100 109.968727,155.594284 109.986679,155.357635 
	C111.084358,155.075729 112.164078,155.030487 113.648987,154.951874 
	C114.054161,154.918488 114.041145,154.983978 114.041130,155.276443 
	C114.022781,155.751617 114.004456,155.934326 113.986130,156.117020 
z"/>
<path fill="#5B8BBA" opacity="1.000000" stroke="none" 
	d="
M114.232712,156.390778 
	C114.004456,155.934326 114.022781,155.751617 114.013306,155.294891 
	C114.435173,155.063202 114.884850,155.105530 115.652176,155.277435 
	C116.369675,155.660507 116.769531,155.914032 117.379723,156.282242 
	C117.590065,156.396942 117.803024,156.770203 117.896225,156.963806 
	C117.989433,157.157425 117.994377,157.592224 118.006439,157.809662 
	C118.018501,158.027084 117.703506,158.023544 117.703506,158.023544 
	C117.703506,158.023544 117.389259,158.045502 117.241119,158.082703 
	C116.221748,157.634781 115.350525,157.149673 114.232712,156.390778 
z"/>
</svg>